<svg id="Livello_1" data-name="Livello 1" xmlns="http://www.w3.org/2000/svg" viewBox="0 0 736 362">
  <defs>
    <style>
      .cls-1 {
        fill: #fff;
      }
    </style>
  </defs>
  <title>Senza titolo-2</title>
  <g>
    <g>
      <path class="cls-1" d="M135.35,106.37a15.86,15.86,0,0,1-14.55-9.56l-.24-.55a29.51,29.51,0,0,0-15-15.13l-.28-.12a16.51,16.51,0,0,1-9.66-11.13,15.88,15.88,0,0,1,9.14-18.21l.12-.05a30.65,30.65,0,0,0,15.86-15.87l.06-.12a15.85,15.85,0,0,1,14.54-9.55h0a15.84,15.84,0,0,1,14.55,9.56c.07.18.16.36.24.55a29.51,29.51,0,0,0,15,15.13l.28.12a16.5,16.5,0,0,1,9.66,11.13,15.87,15.87,0,0,1-9.14,18.21l-.12,0A30.67,30.67,0,0,0,150,96.69l-.06.13a15.85,15.85,0,0,1-14.54,9.55Z"/>
      <path class="cls-1" d="M418.78,347.25a15.88,15.88,0,0,1-14.55-9.56l-.24-.56A29.58,29.58,0,0,0,389,322l-.28-.12a16.51,16.51,0,0,1-9.66-11.12,15.88,15.88,0,0,1,9.13-18.21l.12-.05a30.67,30.67,0,0,0,15.87-15.87l.06-.13A15.86,15.86,0,0,1,418.78,267h0a15.85,15.85,0,0,1,14.54,9.56l.25.55a29.56,29.56,0,0,0,15,15.14l.28.12a16.51,16.51,0,0,1,9.66,11.12,15.87,15.87,0,0,1-9.14,18.21l-.12.05a30.65,30.65,0,0,0-15.86,15.87l-.06.12a15.86,15.86,0,0,1-14.54,9.56Z"/>
      <path class="cls-1" d="M135.35,186.66a15.85,15.85,0,0,1-14.55-9.55l-.24-.56a29.51,29.51,0,0,0-15-15.13l-.28-.12a16.51,16.51,0,0,1-9.66-11.13,15.86,15.86,0,0,1,9.14-18.2l.12-.06a30.67,30.67,0,0,0,15.86-15.86l.06-.13a15.85,15.85,0,0,1,14.54-9.55h0a15.86,15.86,0,0,1,14.55,9.56c.07.18.16.37.24.55a29.56,29.56,0,0,0,15,15.14l.28.12a16.49,16.49,0,0,1,9.66,11.12,15.87,15.87,0,0,1-9.14,18.21l-.12.05A30.65,30.65,0,0,0,150,177l-.06.12a15.85,15.85,0,0,1-14.54,9.55Z"/>
      <path class="cls-1" d="M135.35,267a15.85,15.85,0,0,1-14.55-9.55l-.24-.56a29.54,29.54,0,0,0-15-15.13l-.28-.12a16.51,16.51,0,0,1-9.66-11.13,15.87,15.87,0,0,1,9.14-18.2l.12,0a30.72,30.72,0,0,0,15.86-15.87l.06-.13a15.86,15.86,0,0,1,14.54-9.55h0a15.86,15.86,0,0,1,14.55,9.56c.07.18.16.37.24.55a29.56,29.56,0,0,0,15,15.14l.28.12a16.49,16.49,0,0,1,9.66,11.12,15.87,15.87,0,0,1-9.14,18.21l-.12,0A30.65,30.65,0,0,0,150,257.28l-.06.12A15.85,15.85,0,0,1,135.36,267Z"/>
      <path class="cls-1" d="M55.06,186.66a15.85,15.85,0,0,1-14.55-9.55l-.24-.56a29.51,29.51,0,0,0-15-15.13L25,161.3a16.48,16.48,0,0,1-9.66-11.13A15.86,15.86,0,0,1,24.47,132l.12-.06a30.65,30.65,0,0,0,15.87-15.86l.06-.13a15.84,15.84,0,0,1,14.54-9.55h0a15.85,15.85,0,0,1,14.54,9.56c.08.18.16.37.25.55a29.56,29.56,0,0,0,15,15.14l.28.12a16.51,16.51,0,0,1,9.66,11.12,15.87,15.87,0,0,1-9.14,18.21l-.12.05A30.65,30.65,0,0,0,69.67,177l-.06.12a15.85,15.85,0,0,1-14.55,9.55Z"/>
      <path class="cls-1" d="M55.06,267a15.85,15.85,0,0,1-14.55-9.55l-.24-.56a29.54,29.54,0,0,0-15-15.13l-.28-.12a16.48,16.48,0,0,1-9.66-11.13,15.86,15.86,0,0,1,9.13-18.2l.12,0a30.71,30.71,0,0,0,15.87-15.87l.06-.13a15.85,15.85,0,0,1,14.54-9.55h0a15.85,15.85,0,0,1,14.54,9.56c.08.18.16.37.25.55a29.56,29.56,0,0,0,15,15.14l.28.12a16.51,16.51,0,0,1,9.66,11.12,15.87,15.87,0,0,1-9.14,18.21l-.12,0a30.65,30.65,0,0,0-15.86,15.87l-.06.12A15.85,15.85,0,0,1,55.06,267Z"/>
      <path class="cls-1" d="M317.21,186.66a15.85,15.85,0,0,1-14.55-9.55l-.24-.56a29.51,29.51,0,0,0-15-15.13l-.27-.12a16.5,16.5,0,0,1-9.67-11.13,15.86,15.86,0,0,1,9.14-18.2l.12-.06a30.63,30.63,0,0,0,15.86-15.86l.06-.13a15.85,15.85,0,0,1,14.54-9.55h0a15.86,15.86,0,0,1,14.55,9.56l.24.55a29.56,29.56,0,0,0,15,15.14l.28.12a16.49,16.49,0,0,1,9.66,11.12,15.87,15.87,0,0,1-9.14,18.21l-.12.05A30.69,30.69,0,0,0,331.82,177l-.06.12a15.85,15.85,0,0,1-14.54,9.55Z"/>
      <path class="cls-1" d="M317.21,267a15.85,15.85,0,0,1-14.55-9.55l-.24-.56a29.54,29.54,0,0,0-15-15.13l-.27-.12a16.5,16.5,0,0,1-9.67-11.13,15.87,15.87,0,0,1,9.14-18.2l.12,0a30.69,30.69,0,0,0,15.86-15.87l.06-.13a15.86,15.86,0,0,1,14.54-9.55h0a15.86,15.86,0,0,1,14.55,9.56l.24.55a29.56,29.56,0,0,0,15,15.14l.28.12a16.49,16.49,0,0,1,9.66,11.12,15.87,15.87,0,0,1-9.14,18.21l-.12,0a30.69,30.69,0,0,0-15.86,15.87l-.06.12A15.85,15.85,0,0,1,317.22,267Z"/>
      <path class="cls-1" d="M236.92,186.66a15.85,15.85,0,0,1-14.55-9.55l-.24-.56a29.51,29.51,0,0,0-15-15.13l-.28-.12a16.48,16.48,0,0,1-9.66-11.13,15.86,15.86,0,0,1,9.13-18.2l.12-.06a30.65,30.65,0,0,0,15.87-15.86l.06-.13a15.84,15.84,0,0,1,14.54-9.55h0a15.85,15.85,0,0,1,14.54,9.56c.08.18.16.37.25.55a29.56,29.56,0,0,0,15,15.14l.28.12a16.51,16.51,0,0,1,9.66,11.12,15.87,15.87,0,0,1-9.14,18.21l-.12.05A30.65,30.65,0,0,0,251.53,177l-.06.12a15.85,15.85,0,0,1-14.54,9.55Z"/>
      <path class="cls-1" d="M236.92,267a15.85,15.85,0,0,1-14.55-9.55l-.24-.56a29.54,29.54,0,0,0-15-15.13l-.28-.12a16.48,16.48,0,0,1-9.66-11.13,15.86,15.86,0,0,1,9.13-18.2l.12,0a30.71,30.71,0,0,0,15.87-15.87l.06-.13a15.85,15.85,0,0,1,14.54-9.55h0a15.85,15.85,0,0,1,14.54,9.56c.08.18.16.37.25.55a29.56,29.56,0,0,0,15,15.14l.28.12a16.51,16.51,0,0,1,9.66,11.12,15.87,15.87,0,0,1-9.14,18.21l-.12,0a30.65,30.65,0,0,0-15.86,15.87l-.06.12A15.85,15.85,0,0,1,236.93,267Z"/>
      <path class="cls-1" d="M499.07,186.66a15.83,15.83,0,0,1-14.54-9.55c-.08-.19-.17-.37-.25-.56a29.51,29.51,0,0,0-15-15.13l-.27-.12a16.5,16.5,0,0,1-9.67-11.13,15.86,15.86,0,0,1,9.14-18.2l.12-.06a30.63,30.63,0,0,0,15.86-15.86l.06-.13a15.85,15.85,0,0,1,14.54-9.55h0a15.86,15.86,0,0,1,14.55,9.56l.24.55a29.54,29.54,0,0,0,15,15.14l.27.12a16.49,16.49,0,0,1,9.66,11.12,15.87,15.87,0,0,1-9.14,18.21l-.12.05A30.69,30.69,0,0,0,513.68,177l-.06.12a15.85,15.85,0,0,1-14.54,9.55Z"/>
      <path class="cls-1" d="M499.07,267a15.83,15.83,0,0,1-14.54-9.55c-.08-.19-.17-.37-.25-.56a29.54,29.54,0,0,0-15-15.13l-.27-.12a16.5,16.5,0,0,1-9.67-11.13,15.87,15.87,0,0,1,9.14-18.2l.12,0a30.69,30.69,0,0,0,15.86-15.87l.06-.13a15.86,15.86,0,0,1,14.54-9.55h0a15.86,15.86,0,0,1,14.55,9.56l.24.55a29.54,29.54,0,0,0,15,15.14l.27.12a16.49,16.49,0,0,1,9.66,11.12,15.87,15.87,0,0,1-9.14,18.21l-.12,0a30.69,30.69,0,0,0-15.86,15.87l-.06.12A15.85,15.85,0,0,1,499.08,267Z"/>
      <path class="cls-1" d="M418.78,186.66a15.85,15.85,0,0,1-14.55-9.55l-.24-.56a29.51,29.51,0,0,0-15-15.13l-.28-.12a16.51,16.51,0,0,1-9.66-11.13,15.87,15.87,0,0,1,9.13-18.2l.12-.06a30.65,30.65,0,0,0,15.87-15.86l.06-.13a15.85,15.85,0,0,1,14.54-9.55h0a15.84,15.84,0,0,1,14.54,9.56l.25.55a29.56,29.56,0,0,0,15,15.14l.28.12a16.51,16.51,0,0,1,9.66,11.12,15.87,15.87,0,0,1-9.14,18.21l-.12.05A30.65,30.65,0,0,0,433.39,177l-.06.12a15.85,15.85,0,0,1-14.54,9.55Z"/>
      <path class="cls-1" d="M418.78,267a15.85,15.85,0,0,1-14.55-9.55l-.24-.56a29.54,29.54,0,0,0-15-15.13l-.28-.12a16.51,16.51,0,0,1-9.66-11.13,15.87,15.87,0,0,1,9.13-18.2l.12,0a30.71,30.71,0,0,0,15.87-15.87l.06-.13a15.86,15.86,0,0,1,14.54-9.55h0a15.84,15.84,0,0,1,14.54,9.56l.25.55a29.56,29.56,0,0,0,15,15.14l.28.12a16.51,16.51,0,0,1,9.66,11.12,15.87,15.87,0,0,1-9.14,18.21l-.12,0a30.65,30.65,0,0,0-15.86,15.87l-.06.12A15.85,15.85,0,0,1,418.79,267Z"/>
      <path class="cls-1" d="M680.93,186.66a15.83,15.83,0,0,1-14.54-9.55c-.08-.19-.17-.37-.25-.56a29.51,29.51,0,0,0-15-15.13l-.27-.12a16.5,16.5,0,0,1-9.67-11.13,15.86,15.86,0,0,1,9.14-18.2l.12-.06a30.63,30.63,0,0,0,15.86-15.86l.06-.13a15.85,15.85,0,0,1,14.54-9.55h0a15.86,15.86,0,0,1,14.55,9.56l.24.55a29.58,29.58,0,0,0,15,15.14l.27.12a16.49,16.49,0,0,1,9.66,11.12,15.86,15.86,0,0,1-9.14,18.21l-.11.05A30.67,30.67,0,0,0,695.54,177l-.06.12a15.85,15.85,0,0,1-14.54,9.55Z"/>
      <path class="cls-1" d="M680.93,267a15.83,15.83,0,0,1-14.54-9.55c-.08-.19-.17-.37-.25-.56a29.54,29.54,0,0,0-15-15.13l-.27-.12a16.5,16.5,0,0,1-9.67-11.13,15.87,15.87,0,0,1,9.14-18.2l.12,0a30.69,30.69,0,0,0,15.86-15.87l.06-.13a15.86,15.86,0,0,1,14.54-9.55h0a15.86,15.86,0,0,1,14.55,9.56l.24.55a29.58,29.58,0,0,0,15,15.14l.27.12a16.49,16.49,0,0,1,9.66,11.12,15.86,15.86,0,0,1-9.14,18.21l-.11,0a30.67,30.67,0,0,0-15.87,15.87l-.06.12A15.85,15.85,0,0,1,680.94,267Z"/>
      <path class="cls-1" d="M600.64,186.66a15.85,15.85,0,0,1-14.55-9.55l-.24-.56a29.51,29.51,0,0,0-15-15.13l-.28-.12a16.51,16.51,0,0,1-9.66-11.13,15.86,15.86,0,0,1,9.14-18.2l.12-.06A30.67,30.67,0,0,0,586,116.05l.06-.13a15.85,15.85,0,0,1,14.54-9.55h0a15.86,15.86,0,0,1,14.55,9.56c.07.18.16.37.24.55a29.56,29.56,0,0,0,15,15.14l.28.12a16.49,16.49,0,0,1,9.66,11.12,15.87,15.87,0,0,1-9.14,18.21l-.12.05A30.65,30.65,0,0,0,615.25,177l-.06.12a15.85,15.85,0,0,1-14.54,9.55Z"/>
      <path class="cls-1" d="M600.64,267a15.85,15.85,0,0,1-14.55-9.55l-.24-.56a29.54,29.54,0,0,0-15-15.13l-.28-.12a16.51,16.51,0,0,1-9.66-11.13,15.87,15.87,0,0,1,9.14-18.2l.12,0A30.72,30.72,0,0,0,586,196.34l.06-.13a15.86,15.86,0,0,1,14.54-9.55h0a15.86,15.86,0,0,1,14.55,9.56c.07.18.16.37.24.55a29.56,29.56,0,0,0,15,15.14l.28.12a16.49,16.49,0,0,1,9.66,11.12,15.87,15.87,0,0,1-9.14,18.21l-.12,0a30.65,30.65,0,0,0-15.86,15.87l-.06.12A15.85,15.85,0,0,1,600.65,267Z"/>
    </g>
    <g>
      <path class="cls-1" d="M547,37.81a12.37,12.37,0,0,1,8.78-3.43,13.74,13.74,0,0,1,11.42,6.07,3.66,3.66,0,0,1,.63,2A3.83,3.83,0,0,1,564,46.42a4.23,4.23,0,0,1-3.21-1.51,9,9,0,0,0-6.6-2.95c-4.46,0-7.14,3.57-7.14,8.83V76.84a3.93,3.93,0,0,1-7.85,0V38.3a3.92,3.92,0,0,1,7.81-.49Z"/>
      <path class="cls-1" d="M586.23,53.38l8.56-2c2.68-.63,3.3-2.14,3.3-3.48,0-3.75-3.39-6-7.49-6S584,44,582,46.69a3.93,3.93,0,0,1-3.12,1.52,3.85,3.85,0,0,1-3.83-3.75,4.07,4.07,0,0,1,.8-2.41c3.48-4.64,8.21-7.67,14.72-7.67,8.92,0,15.34,5.26,15.34,14.63V68.72c0,3,.71,3.66,3.48,4.64,2,.71,2.85,1.79,2.85,3.66,0,2.32-1.78,3.74-4.19,3.74a11.25,11.25,0,0,1-8.21-3.92A17.09,17.09,0,0,1,589,80.76c-8.65,0-14.9-5.88-14.9-13.64C574.09,62.12,576.32,55.65,586.23,53.38ZM589,73.18a15.51,15.51,0,0,0,9.37-3.65V57.75a17,17,0,0,1-3.21,1.07l-6.78,1.61c-4.11,1-6.43,2.76-6.43,6.33C581.94,71,585.6,73.18,589,73.18Z"/>
      <path class="cls-1" d="M651.6,18.68V76.84a3.92,3.92,0,0,1-7.8.49,13.37,13.37,0,0,1-9.23,3.43c-8.66,0-14.72-5.79-14.72-15.34V49.72c0-9.54,6.06-15.34,14.72-15.34a13.36,13.36,0,0,1,9.18,3.39V18.68a3.93,3.93,0,1,1,7.85,0Zm-15.87,54.5c5.35,0,8-3.57,8-8.83V50.79c0-5.26-2.67-8.83-8-8.83s-8,3.57-8,8.83V64.35C627.7,69.61,630.37,73.18,635.73,73.18Z"/>
      <path class="cls-1" d="M666,22.16A4.73,4.73,0,1,1,670.69,27,4.7,4.7,0,0,1,666,22.16Zm.8,16.14a3.93,3.93,0,0,1,7.85,0V76.84a3.93,3.93,0,0,1-7.85,0Z"/>
      <path class="cls-1" d="M689.33,64.53V50.61c0-10.43,7.22-16.23,15.87-16.23s15.88,5.8,15.88,16.23V64.53c0,10.44-7.22,16.23-15.88,16.23S689.33,75,689.33,64.53Zm15.87,8.65c5.36,0,8-3.57,8-8.83V50.79c0-5.26-2.67-8.83-8-8.83s-8,3.57-8,8.83V64.35C697.18,69.61,699.85,73.18,705.2,73.18Z"/>
    </g>
  </g>
</svg>
