<svg id="Livello_1" data-name="Livello 1" xmlns="http://www.w3.org/2000/svg" viewBox="0 0 135 136">
  <title>Senza titolo-2</title>
  <path fill="#ff0000" d="M66.1,125.87a23.63,23.63,0,0,1-21.7-14.26c-.12-.27-.24-.55-.37-.83A44.06,44.06,0,0,0,21.66,88.21l-.4-.18C14.2,84.92,8.57,78.94,6.83,71.43A23.67,23.67,0,0,1,20.47,44.27l.18-.08A45.81,45.81,0,0,0,44.32,20.51l.08-.18A23.66,23.66,0,0,1,66.1,6.08h0a23.63,23.63,0,0,1,21.7,14.26l.36.82a44.1,44.1,0,0,0,22.38,22.58l.4.18C118,47,123.64,53,125.38,60.52a23.67,23.67,0,0,1-13.64,27.16l-.18.08a45.82,45.82,0,0,0-23.67,23.67l-.08.19a23.66,23.66,0,0,1-21.7,14.25Z"/>
</svg>
