<svg id="Livello_1" data-name="Livello 1" xmlns="http://www.w3.org/2000/svg" viewBox="0 0 1915 1146">
  <defs>
    <style>
      .cls-1 {
        opacity: 0.3;
      }

      .cls-2 {
        fill: #1ba9e3;
      }
    </style>
  </defs>
  <title>Pattern Background</title>
  <g class="cls-1">
    <path class="cls-2" d="M672.78-.24v1h0a36.65,36.65,0,0,1,33.66,22.11l.12.28a73.53,73.53,0,0,0,38.22,38.22l.3.13a36.68,36.68,0,0,1,0,67.31l-1.33.57a71,71,0,0,0-36.47,36.15l-.28.65c-5,11.46-14.68,19.84-25.75,22.39a37.84,37.84,0,0,1-8.45,1,36.64,36.64,0,0,1-33.66-22.11l-.13-.28a73.49,73.49,0,0,0-38.22-38.22l-.29-.13a36.66,36.66,0,0,1,0-67.3l1.33-.58a71,71,0,0,0,36.46-36.14l.28-.65c5-11.47,14.68-19.84,25.75-22.4a37.93,37.93,0,0,1,8.46-1v-1m0,0a38.84,38.84,0,0,0-8.69,1c-12,2.76-21.48,11.73-26.43,23-.1.21-.19.43-.29.64a70.17,70.17,0,0,1-36,35.63l-1.32.58a37.67,37.67,0,0,0-22.71,34.56h0a37.68,37.68,0,0,0,22.7,34.57l.3.13a72.83,72.83,0,0,1,37.7,37.7l.12.28a37.66,37.66,0,0,0,34.58,22.71,38.24,38.24,0,0,0,8.68-1c12-2.75,21.49-11.73,26.43-23l.29-.65a70.21,70.21,0,0,1,35.95-35.63l1.32-.58a37.66,37.66,0,0,0,22.71-34.56h0a37.68,37.68,0,0,0-22.7-34.57l-.29-.12a72.85,72.85,0,0,1-37.7-37.71l-.13-.28A37.66,37.66,0,0,0,672.78-.24Z"/>
    <path class="cls-2" d="M672.78,190.8v1h0a36.65,36.65,0,0,1,33.66,22.11l.12.28a73.53,73.53,0,0,0,38.22,38.22l.3.13a36.67,36.67,0,0,1,0,67.3l-1.33.58a71,71,0,0,0-36.47,36.15l-.28.64c-5,11.47-14.68,19.85-25.75,22.4a37.84,37.84,0,0,1-8.45,1,36.64,36.64,0,0,1-33.66-22.11l-.13-.28A73.49,73.49,0,0,0,600.78,320l-.29-.13a36.66,36.66,0,0,1,0-67.3l1.33-.58a71,71,0,0,0,36.46-36.14l.28-.65c5-11.47,14.68-19.84,25.75-22.4a37.93,37.93,0,0,1,8.46-1v-1m0,0a38.84,38.84,0,0,0-8.69,1c-12,2.76-21.48,11.73-26.43,23-.1.21-.19.43-.29.64a70.17,70.17,0,0,1-36,35.63l-1.32.58a37.67,37.67,0,0,0-22.71,34.56h0a37.68,37.68,0,0,0,22.7,34.57l.3.12a72.89,72.89,0,0,1,37.7,37.71l.12.28a37.66,37.66,0,0,0,34.58,22.71,38.24,38.24,0,0,0,8.68-1c12-2.76,21.49-11.73,26.43-23l.29-.65a70.21,70.21,0,0,1,35.95-35.63l1.32-.58a37.66,37.66,0,0,0,22.71-34.56h0a37.68,37.68,0,0,0-22.7-34.57l-.29-.12a72.85,72.85,0,0,1-37.7-37.71l-.13-.28a37.66,37.66,0,0,0-34.57-22.71Z"/>
    <path class="cls-2" d="M672.78,381.84v1h0A36.65,36.65,0,0,1,706.44,405l.12.28a73.53,73.53,0,0,0,38.22,38.22l.3.13a36.67,36.67,0,0,1,0,67.3l-1.33.58a71,71,0,0,0-36.47,36.15l-.28.64c-5,11.47-14.68,19.85-25.75,22.4a37.84,37.84,0,0,1-8.45,1,36.64,36.64,0,0,1-33.66-22.11l-.13-.28A73.49,73.49,0,0,0,600.78,511l-.29-.13a36.66,36.66,0,0,1,0-67.3l1.33-.59a71,71,0,0,0,36.46-36.13l.28-.65c5-11.47,14.68-19.84,25.75-22.4a37.93,37.93,0,0,1,8.46-1v-1m0,0a38.84,38.84,0,0,0-8.69,1c-12,2.76-21.48,11.73-26.43,23-.1.21-.19.43-.29.64a70.17,70.17,0,0,1-36,35.63l-1.32.58a37.67,37.67,0,0,0-22.71,34.56h0a37.68,37.68,0,0,0,22.7,34.57l.3.12a72.9,72.9,0,0,1,37.7,37.7l.12.29a37.66,37.66,0,0,0,34.58,22.71,38.82,38.82,0,0,0,8.68-1c12-2.76,21.49-11.73,26.43-23l.29-.65a70.21,70.21,0,0,1,35.95-35.63l1.32-.58a37.66,37.66,0,0,0,22.71-34.56h0a37.68,37.68,0,0,0-22.7-34.57l-.29-.13a72.8,72.8,0,0,1-37.7-37.7l-.13-.28a37.66,37.66,0,0,0-34.57-22.71Z"/>
    <path class="cls-2" d="M672.78,572.88v1h0A36.65,36.65,0,0,1,706.44,596l.12.28a73.53,73.53,0,0,0,38.22,38.22l.3.13a36.67,36.67,0,0,1,0,67.3l-1.33.58a71,71,0,0,0-36.47,36.14l-.28.65c-5,11.47-14.68,19.84-25.75,22.4a37.84,37.84,0,0,1-8.45,1,36.64,36.64,0,0,1-33.66-22.11l-.13-.28a73.49,73.49,0,0,0-38.22-38.22l-.29-.13a36.67,36.67,0,0,1,0-67.31l1.33-.58a71,71,0,0,0,36.46-36.13l.28-.65c5-11.47,14.68-19.84,25.75-22.4a37.93,37.93,0,0,1,8.46-1v-1m0,0a38.84,38.84,0,0,0-8.69,1c-12,2.76-21.48,11.73-26.43,23-.1.21-.19.43-.29.64a70.21,70.21,0,0,1-36,35.63l-1.32.58a37.67,37.67,0,0,0-22.71,34.56h0a37.66,37.66,0,0,0,22.7,34.56l.3.13a72.9,72.9,0,0,1,37.7,37.7l.12.29a37.66,37.66,0,0,0,34.58,22.71,38.82,38.82,0,0,0,8.68-1c12-2.76,21.49-11.73,26.43-23l.29-.65a70.21,70.21,0,0,1,35.95-35.63l1.32-.58a37.66,37.66,0,0,0,22.71-34.56h0a37.67,37.67,0,0,0-22.7-34.57l-.29-.13a72.8,72.8,0,0,1-37.7-37.7l-.13-.28a37.66,37.66,0,0,0-34.57-22.71Z"/>
    <path class="cls-2" d="M672.78,763.92v1h0A36.65,36.65,0,0,1,706.44,787l.12.28a73.56,73.56,0,0,0,38.22,38.22l.3.13a36.67,36.67,0,0,1,0,67.3l-1.33.58a71,71,0,0,0-36.47,36.14l-.28.65c-5,11.47-14.68,19.84-25.75,22.4a37.84,37.84,0,0,1-8.45,1,36.64,36.64,0,0,1-33.66-22.11l-.13-.29a73.51,73.51,0,0,0-38.22-38.21l-.29-.13a36.67,36.67,0,0,1,0-67.31l1.33-.58a71,71,0,0,0,36.46-36.13l.28-.65c5-11.47,14.68-19.84,25.75-22.4a37.93,37.93,0,0,1,8.46-1v-1m0,0a38.84,38.84,0,0,0-8.69,1c-12,2.76-21.48,11.73-26.43,23-.1.21-.19.43-.29.64a70.21,70.21,0,0,1-36,35.63l-1.32.58a37.67,37.67,0,0,0-22.71,34.56h0a37.67,37.67,0,0,0,22.7,34.56l.3.13a72.9,72.9,0,0,1,37.7,37.7l.12.29a37.66,37.66,0,0,0,34.58,22.71,38.82,38.82,0,0,0,8.68-1c12-2.76,21.49-11.73,26.43-23l.29-.65a70.21,70.21,0,0,1,35.95-35.63l1.32-.58a37.66,37.66,0,0,0,22.71-34.56h0a37.67,37.67,0,0,0-22.7-34.57l-.29-.13a72.83,72.83,0,0,1-37.7-37.7l-.13-.28a37.66,37.66,0,0,0-34.57-22.71Z"/>
    <path class="cls-2" d="M672.78,955v1h0a36.65,36.65,0,0,1,33.66,22.11l.12.28a73.56,73.56,0,0,0,38.22,38.22l.3.13a36.67,36.67,0,0,1,0,67.3l-1.33.58a71,71,0,0,0-36.47,36.14l-.28.65c-5,11.47-14.68,19.84-25.75,22.4a37.84,37.84,0,0,1-8.45,1,36.64,36.64,0,0,1-33.66-22.11l-.13-.29a73.51,73.51,0,0,0-38.22-38.21l-.29-.13a36.67,36.67,0,0,1,0-67.31l1.33-.58A71,71,0,0,0,638.29,980l.28-.65c5-11.47,14.68-19.85,25.75-22.4a37.93,37.93,0,0,1,8.46-1v-1m0,0a38.26,38.26,0,0,0-8.69,1c-12,2.76-21.48,11.73-26.43,23-.1.21-.19.43-.29.64a70.21,70.21,0,0,1-36,35.63l-1.32.58a37.67,37.67,0,0,0-22.71,34.56h0a37.67,37.67,0,0,0,22.7,34.56l.3.13a72.9,72.9,0,0,1,37.7,37.7l.12.29a37.66,37.66,0,0,0,34.58,22.71,38.82,38.82,0,0,0,8.68-1c12-2.76,21.49-11.73,26.43-23l.29-.65a70.17,70.17,0,0,1,35.95-35.63l1.32-.58a37.66,37.66,0,0,0,22.71-34.56v0a37.67,37.67,0,0,0-22.7-34.56l-.29-.13a72.83,72.83,0,0,1-37.7-37.7l-.13-.28A37.66,37.66,0,0,0,672.78,955Z"/>
    <path class="cls-2" d="M481.58-.24v1h0a36.62,36.62,0,0,1,33.65,22.11l.13.28a73.49,73.49,0,0,0,38.22,38.22l.3.13a36.68,36.68,0,0,1,0,67.31l-1.32.57a71,71,0,0,0-36.47,36.15l-.28.65c-5,11.46-14.68,19.84-25.75,22.39a37.86,37.86,0,0,1-8.46,1,36.64,36.64,0,0,1-33.65-22.11l-.13-.28a73.49,73.49,0,0,0-38.22-38.22l-.29-.13a36.66,36.66,0,0,1,0-67.3l1.33-.58a71,71,0,0,0,36.46-36.14l.28-.65c5.05-11.47,14.68-19.84,25.75-22.4a37.86,37.86,0,0,1,8.46-1v-1m0,0a38.84,38.84,0,0,0-8.69,1c-12,2.76-21.48,11.73-26.43,23-.1.21-.19.43-.29.64A70.17,70.17,0,0,1,410.22,60l-1.32.58a37.67,37.67,0,0,0-22.71,34.56h0a37.68,37.68,0,0,0,22.7,34.57l.29.13a72.76,72.76,0,0,1,37.7,37.7c.05.09.09.19.13.28a37.66,37.66,0,0,0,34.57,22.71,38.26,38.26,0,0,0,8.69-1c12-2.75,21.48-11.73,26.43-23l.29-.65a70.21,70.21,0,0,1,36-35.63l1.32-.58A37.67,37.67,0,0,0,577,95.16h0a37.68,37.68,0,0,0-22.7-34.57l-.29-.12a72.85,72.85,0,0,1-37.7-37.71c0-.09-.09-.19-.13-.28A37.66,37.66,0,0,0,481.58-.24Z"/>
    <path class="cls-2" d="M481.58,190.8v1h0a36.62,36.62,0,0,1,33.65,22.11l.13.28a73.49,73.49,0,0,0,38.22,38.22l.3.13a36.67,36.67,0,0,1,0,67.3l-1.32.58a71,71,0,0,0-36.47,36.15l-.28.64c-5,11.47-14.68,19.85-25.75,22.4a37.86,37.86,0,0,1-8.46,1,36.64,36.64,0,0,1-33.65-22.11l-.13-.28A73.49,73.49,0,0,0,409.58,320l-.29-.13a36.66,36.66,0,0,1,0-67.3l1.33-.58a71,71,0,0,0,36.46-36.14l.28-.65c5.05-11.47,14.68-19.84,25.75-22.4a37.86,37.86,0,0,1,8.46-1v-1m0,0a38.84,38.84,0,0,0-8.69,1c-12,2.76-21.48,11.73-26.43,23-.1.21-.19.43-.29.64A70.17,70.17,0,0,1,410.22,251l-1.32.58a37.67,37.67,0,0,0-22.71,34.56h0a37.68,37.68,0,0,0,22.7,34.57l.29.12a72.81,72.81,0,0,1,37.7,37.71c.05.09.09.19.13.28a37.66,37.66,0,0,0,34.57,22.71,38.26,38.26,0,0,0,8.69-1c12-2.76,21.48-11.73,26.43-23L517,357a70.21,70.21,0,0,1,36-35.63l1.32-.58A37.67,37.67,0,0,0,577,286.2h0a37.68,37.68,0,0,0-22.7-34.57l-.29-.12a72.85,72.85,0,0,1-37.7-37.71c0-.09-.09-.19-.13-.28a37.66,37.66,0,0,0-34.57-22.71Z"/>
    <path class="cls-2" d="M481.58,381.84v1h0A36.62,36.62,0,0,1,515.23,405l.13.28a73.49,73.49,0,0,0,38.22,38.22l.3.13a36.67,36.67,0,0,1,0,67.3l-1.32.58a71,71,0,0,0-36.47,36.15l-.28.64c-5,11.47-14.68,19.85-25.75,22.4a37.86,37.86,0,0,1-8.46,1,36.64,36.64,0,0,1-33.65-22.11l-.13-.28A73.49,73.49,0,0,0,409.58,511l-.29-.13a36.66,36.66,0,0,1,0-67.3l1.33-.59a71,71,0,0,0,36.46-36.13l.28-.65c5.05-11.47,14.68-19.84,25.75-22.4a37.86,37.86,0,0,1,8.46-1v-1m0,0a38.84,38.84,0,0,0-8.69,1c-12,2.76-21.48,11.73-26.43,23-.1.21-.19.43-.29.64a70.17,70.17,0,0,1-35.95,35.63l-1.32.58a37.67,37.67,0,0,0-22.71,34.56h0a37.68,37.68,0,0,0,22.7,34.57l.29.12a72.83,72.83,0,0,1,37.7,37.7c.05.1.09.19.13.29a37.66,37.66,0,0,0,34.57,22.71,38.84,38.84,0,0,0,8.69-1c12-2.76,21.48-11.73,26.43-23L517,548a70.21,70.21,0,0,1,36-35.63l1.32-.58A37.67,37.67,0,0,0,577,477.24h0a37.68,37.68,0,0,0-22.7-34.57l-.29-.13a72.8,72.8,0,0,1-37.7-37.7c0-.09-.09-.19-.13-.28a37.66,37.66,0,0,0-34.57-22.71Z"/>
    <path class="cls-2" d="M481.58,572.88v1h0A36.62,36.62,0,0,1,515.23,596l.13.28a73.49,73.49,0,0,0,38.22,38.22l.3.13a36.67,36.67,0,0,1,0,67.3l-1.32.58a71,71,0,0,0-36.47,36.14l-.28.65c-5,11.47-14.68,19.84-25.75,22.4a37.86,37.86,0,0,1-8.46,1,36.64,36.64,0,0,1-33.65-22.11l-.13-.28a73.49,73.49,0,0,0-38.22-38.22l-.29-.13a36.67,36.67,0,0,1,0-67.31l1.33-.58a71,71,0,0,0,36.46-36.13l.28-.65c5.05-11.47,14.68-19.84,25.75-22.4a37.86,37.86,0,0,1,8.46-1v-1m0,0a38.84,38.84,0,0,0-8.69,1c-12,2.76-21.48,11.73-26.43,23-.1.21-.19.43-.29.64a70.21,70.21,0,0,1-35.95,35.63l-1.32.58a37.67,37.67,0,0,0-22.71,34.56h0a37.66,37.66,0,0,0,22.7,34.56l.29.13a72.83,72.83,0,0,1,37.7,37.7c.05.1.09.19.13.29a37.66,37.66,0,0,0,34.57,22.71,38.84,38.84,0,0,0,8.69-1c12-2.76,21.48-11.73,26.43-23l.29-.65a70.21,70.21,0,0,1,36-35.63l1.32-.58A37.67,37.67,0,0,0,577,668.28h0a37.67,37.67,0,0,0-22.7-34.57l-.29-.13a72.8,72.8,0,0,1-37.7-37.7c0-.09-.09-.19-.13-.28a37.66,37.66,0,0,0-34.57-22.71Z"/>
    <path class="cls-2" d="M481.58,763.92v1h0A36.64,36.64,0,0,1,515.24,787l.12.27a73.53,73.53,0,0,0,38.22,38.22l.3.13a36.67,36.67,0,0,1,0,67.3l-1.32.58a71,71,0,0,0-36.47,36.14l-.28.65c-5,11.47-14.68,19.84-25.75,22.4a37.86,37.86,0,0,1-8.46,1,36.64,36.64,0,0,1-33.65-22.11l-.13-.29a73.51,73.51,0,0,0-38.22-38.21l-.24-.11,0,0a36.67,36.67,0,0,1,0-67.31l1.33-.58a71,71,0,0,0,36.46-36.13l.28-.65c5.05-11.47,14.68-19.84,25.75-22.4a37.86,37.86,0,0,1,8.46-1v-1m0,0a38.84,38.84,0,0,0-8.69,1c-12,2.76-21.48,11.73-26.43,23-.1.21-.19.43-.29.64a70.21,70.21,0,0,1-35.95,35.63l-1.32.58a37.67,37.67,0,0,0-22.71,34.56h0a37.67,37.67,0,0,0,22.7,34.56l.29.13a72.83,72.83,0,0,1,37.7,37.7c.05.1.09.19.13.29a37.66,37.66,0,0,0,34.57,22.71,38.84,38.84,0,0,0,8.69-1c12-2.76,21.48-11.73,26.43-23l.29-.65a70.21,70.21,0,0,1,36-35.63l1.32-.58A37.67,37.67,0,0,0,577,859.32h0a37.67,37.67,0,0,0-22.7-34.57l-.29-.13a72.83,72.83,0,0,1-37.7-37.7c0-.09-.09-.19-.13-.28a37.66,37.66,0,0,0-34.57-22.71Z"/>
    <path class="cls-2" d="M481.58,955v1h0a36.62,36.62,0,0,1,33.65,22.11l.13.28a73.53,73.53,0,0,0,38.22,38.22l.3.13a36.67,36.67,0,0,1,0,67.3l-1.32.58a71,71,0,0,0-36.47,36.14l-.28.65c-5,11.47-14.68,19.84-25.75,22.4a37.86,37.86,0,0,1-8.46,1,36.64,36.64,0,0,1-33.65-22.11l-.13-.29a73.51,73.51,0,0,0-38.22-38.21l-.29-.13a36.67,36.67,0,0,1,0-67.31l1.33-.58A71,71,0,0,0,447.09,980l.28-.65c5.05-11.47,14.68-19.85,25.75-22.4a37.86,37.86,0,0,1,8.46-1v-1m0,0a38.26,38.26,0,0,0-8.69,1c-12,2.76-21.48,11.73-26.43,23-.1.21-.19.43-.29.64a70.21,70.21,0,0,1-35.95,35.63l-1.32.58a37.67,37.67,0,0,0-22.71,34.56h0a37.67,37.67,0,0,0,22.7,34.56l.29.13a72.83,72.83,0,0,1,37.7,37.7c.05.1.09.19.13.29a37.66,37.66,0,0,0,34.57,22.71,38.84,38.84,0,0,0,8.69-1c12-2.76,21.48-11.73,26.43-23l.29-.65a70.17,70.17,0,0,1,36-35.63l1.32-.58A37.67,37.67,0,0,0,577,1050.36v0a37.67,37.67,0,0,0-22.7-34.56l-.29-.13a72.83,72.83,0,0,1-37.7-37.7c0-.09-.09-.19-.13-.28A37.66,37.66,0,0,0,481.58,955Z"/>
    <path class="cls-2" d="M290.38-.24v1h0A36.65,36.65,0,0,1,324,22.87l.13.28a73.49,73.49,0,0,0,38.22,38.22l.3.13a36.68,36.68,0,0,1,0,67.31l-1.32.57a71,71,0,0,0-36.47,36.15l-.29.65c-5,11.46-14.67,19.84-25.74,22.39a37.86,37.86,0,0,1-8.46,1,36.65,36.65,0,0,1-33.66-22.11l-.12-.28a73.49,73.49,0,0,0-38.22-38.22l-.3-.13a36.67,36.67,0,0,1,0-67.3l1.32-.58a71,71,0,0,0,36.47-36.14l.28-.65c5.05-11.47,14.68-19.84,25.75-22.4a37.86,37.86,0,0,1,8.46-1v-1m0,0a38.84,38.84,0,0,0-8.69,1c-12,2.76-21.49,11.73-26.43,23-.1.21-.19.43-.29.64A70.17,70.17,0,0,1,219,60l-1.32.58A37.67,37.67,0,0,0,195,95.14h0a37.68,37.68,0,0,0,22.7,34.57l.29.13a72.8,72.8,0,0,1,37.7,37.7l.13.28a37.66,37.66,0,0,0,34.57,22.71,38.26,38.26,0,0,0,8.69-1c12-2.75,21.48-11.73,26.43-23,.09-.22.19-.43.29-.65a70.21,70.21,0,0,1,35.95-35.63l1.32-.58a37.67,37.67,0,0,0,22.71-34.56h0a37.68,37.68,0,0,0-22.7-34.57l-.29-.12a72.85,72.85,0,0,1-37.7-37.71c-.05-.09-.09-.19-.13-.28A37.66,37.66,0,0,0,290.38-.24Z"/>
    <path class="cls-2" d="M290.38,190.8v1h0A36.65,36.65,0,0,1,324,213.91l.13.28a73.49,73.49,0,0,0,38.22,38.22l.3.13a36.67,36.67,0,0,1,0,67.3l-1.32.58a71,71,0,0,0-36.47,36.15l-.29.64c-5,11.47-14.67,19.85-25.74,22.4a37.86,37.86,0,0,1-8.46,1,36.65,36.65,0,0,1-33.66-22.11l-.12-.28A73.49,73.49,0,0,0,218.38,320l-.3-.13a36.67,36.67,0,0,1,0-67.3l1.32-.58a71,71,0,0,0,36.47-36.14l.28-.65c5.05-11.47,14.68-19.84,25.75-22.4a37.86,37.86,0,0,1,8.46-1v-1m0,0a38.84,38.84,0,0,0-8.69,1c-12,2.76-21.49,11.73-26.43,23-.1.21-.19.43-.29.64A70.17,70.17,0,0,1,219,251l-1.32.58A37.67,37.67,0,0,0,195,286.18h0a37.68,37.68,0,0,0,22.7,34.57l.29.12a72.85,72.85,0,0,1,37.7,37.71l.13.28a37.66,37.66,0,0,0,34.57,22.71,38.26,38.26,0,0,0,8.69-1c12-2.76,21.48-11.73,26.43-23,.09-.22.19-.43.29-.65a70.21,70.21,0,0,1,35.95-35.63l1.32-.58a37.67,37.67,0,0,0,22.71-34.56h0a37.68,37.68,0,0,0-22.7-34.57l-.29-.12a72.85,72.85,0,0,1-37.7-37.71c-.05-.09-.09-.19-.13-.28a37.66,37.66,0,0,0-34.57-22.71Z"/>
    <path class="cls-2" d="M290.38,381.84v1h0A36.65,36.65,0,0,1,324,405l.13.28a73.49,73.49,0,0,0,38.22,38.22l.3.13a36.67,36.67,0,0,1,0,67.3l-1.32.58a71,71,0,0,0-36.47,36.15l-.29.64c-5,11.47-14.67,19.85-25.74,22.4a37.86,37.86,0,0,1-8.46,1,36.65,36.65,0,0,1-33.66-22.11l-.12-.28A73.49,73.49,0,0,0,218.38,511l-.3-.13a36.67,36.67,0,0,1,0-67.3l1.32-.59a71,71,0,0,0,36.47-36.13l.28-.65c5.05-11.47,14.68-19.84,25.75-22.4a37.86,37.86,0,0,1,8.46-1v-1m0,0a38.84,38.84,0,0,0-8.69,1c-12,2.76-21.49,11.73-26.43,23-.1.21-.19.43-.29.64A70.17,70.17,0,0,1,219,442.08l-1.32.58A37.67,37.67,0,0,0,195,477.22h0a37.68,37.68,0,0,0,22.7,34.57l.29.12a72.87,72.87,0,0,1,37.7,37.7c0,.1.09.19.13.29a37.66,37.66,0,0,0,34.57,22.71,38.84,38.84,0,0,0,8.69-1c12-2.76,21.48-11.73,26.43-23,.09-.22.19-.43.29-.65a70.21,70.21,0,0,1,35.95-35.63l1.32-.58a37.67,37.67,0,0,0,22.71-34.56h0a37.68,37.68,0,0,0-22.7-34.57l-.29-.13a72.8,72.8,0,0,1-37.7-37.7c-.05-.09-.09-.19-.13-.28a37.66,37.66,0,0,0-34.57-22.71Z"/>
    <path class="cls-2" d="M290.38,572.88v1h0A36.65,36.65,0,0,1,324,596l.13.28a73.49,73.49,0,0,0,38.22,38.22l.3.13a36.67,36.67,0,0,1,0,67.3l-1.32.58a71,71,0,0,0-36.47,36.14l-.29.65c-5,11.47-14.67,19.84-25.74,22.4a37.86,37.86,0,0,1-8.46,1,36.65,36.65,0,0,1-33.66-22.11l-.12-.28a73.49,73.49,0,0,0-38.22-38.22l-.3-.13a36.68,36.68,0,0,1,0-67.31l1.32-.58a71,71,0,0,0,36.47-36.13l.28-.65c5.05-11.47,14.68-19.84,25.75-22.4a37.86,37.86,0,0,1,8.46-1v-1m0,0a38.84,38.84,0,0,0-8.69,1c-12,2.76-21.49,11.73-26.43,23-.1.21-.19.43-.29.64A70.21,70.21,0,0,1,219,633.12l-1.32.58A37.67,37.67,0,0,0,195,668.26h0a37.66,37.66,0,0,0,22.7,34.56l.29.13a72.87,72.87,0,0,1,37.7,37.7c0,.1.09.19.13.29a37.66,37.66,0,0,0,34.57,22.71,38.84,38.84,0,0,0,8.69-1c12-2.76,21.48-11.73,26.43-23,.09-.22.19-.43.29-.65a70.21,70.21,0,0,1,35.95-35.63l1.32-.58a37.67,37.67,0,0,0,22.71-34.56h0a37.67,37.67,0,0,0-22.7-34.57l-.29-.13a72.8,72.8,0,0,1-37.7-37.7l-.13-.28a37.66,37.66,0,0,0-34.57-22.71Z"/>
    <path class="cls-2" d="M290.38,763.92v1h0A36.65,36.65,0,0,1,324,787l.13.28a73.53,73.53,0,0,0,38.22,38.22l.3.13a36.67,36.67,0,0,1,0,67.3l-1.32.58a71,71,0,0,0-36.47,36.14l-.29.65c-5,11.47-14.67,19.84-25.74,22.4a37.86,37.86,0,0,1-8.46,1,36.65,36.65,0,0,1-33.66-22.11l-.12-.29a73.51,73.51,0,0,0-38.22-38.21l-.3-.13a36.68,36.68,0,0,1,0-67.31l1.32-.58a71,71,0,0,0,36.47-36.13l.28-.65c5.05-11.47,14.68-19.84,25.75-22.4a37.86,37.86,0,0,1,8.46-1v-1m0,0a38.84,38.84,0,0,0-8.69,1c-12,2.76-21.49,11.73-26.43,23-.1.21-.19.43-.29.64A70.21,70.21,0,0,1,219,824.16l-1.32.58A37.67,37.67,0,0,0,195,859.3h0a37.67,37.67,0,0,0,22.7,34.56l.29.13a72.87,72.87,0,0,1,37.7,37.7c0,.1.09.19.13.29a37.66,37.66,0,0,0,34.57,22.71,38.84,38.84,0,0,0,8.69-1c12-2.76,21.48-11.73,26.43-23,.09-.22.19-.43.29-.65a70.21,70.21,0,0,1,35.95-35.63l1.32-.58a37.67,37.67,0,0,0,22.71-34.56h0a37.67,37.67,0,0,0-22.7-34.57l-.29-.13a72.83,72.83,0,0,1-37.7-37.7l-.13-.28a37.66,37.66,0,0,0-34.57-22.71Z"/>
    <path class="cls-2" d="M290.38,955v1h0A36.65,36.65,0,0,1,324,978.07l.13.28a73.53,73.53,0,0,0,38.22,38.22l.3.13a36.67,36.67,0,0,1,0,67.3l-1.32.58a71,71,0,0,0-36.47,36.14l-.29.65c-5,11.47-14.67,19.84-25.74,22.4a37.86,37.86,0,0,1-8.46,1,36.65,36.65,0,0,1-33.66-22.11l-.12-.29a73.51,73.51,0,0,0-38.22-38.21l-.3-.13a36.68,36.68,0,0,1,0-67.31l1.32-.58A71,71,0,0,0,255.89,980l.28-.65c5.05-11.47,14.68-19.85,25.75-22.4a37.86,37.86,0,0,1,8.46-1v-1m0,0a38.26,38.26,0,0,0-8.69,1c-12,2.76-21.49,11.73-26.43,23-.1.21-.19.43-.29.64A70.21,70.21,0,0,1,219,1015.2l-1.32.58A37.67,37.67,0,0,0,195,1050.34h0a37.67,37.67,0,0,0,22.7,34.56l.29.13a72.87,72.87,0,0,1,37.7,37.7c0,.1.09.19.13.29a37.66,37.66,0,0,0,34.57,22.71,38.84,38.84,0,0,0,8.69-1c12-2.76,21.48-11.73,26.43-23,.09-.22.19-.43.29-.65a70.17,70.17,0,0,1,35.95-35.63l1.32-.58a37.67,37.67,0,0,0,22.71-34.56v0a37.67,37.67,0,0,0-22.7-34.56l-.29-.13a72.83,72.83,0,0,1-37.7-37.7l-.13-.28A37.66,37.66,0,0,0,290.38,955Z"/>
    <path class="cls-2" d="M99.18-.24v1h0a36.65,36.65,0,0,1,33.65,22.11l.13.28a73.49,73.49,0,0,0,38.22,38.22l.29.13a36.67,36.67,0,0,1,0,67.31l-1.32.57a71,71,0,0,0-36.47,36.15l-.29.65c-5,11.46-14.67,19.84-25.74,22.39a37.93,37.93,0,0,1-8.46,1,36.65,36.65,0,0,1-33.66-22.11l-.12-.28a73.49,73.49,0,0,0-38.22-38.22l-.3-.13a36.67,36.67,0,0,1,0-67.3l1.32-.58A71,71,0,0,0,64.69,24.78l.28-.65C70,12.66,79.65,4.29,90.72,1.73a37.86,37.86,0,0,1,8.46-1v-1m0,0a38.84,38.84,0,0,0-8.69,1c-12,2.76-21.49,11.73-26.43,23-.1.21-.19.43-.29.64A70.17,70.17,0,0,1,27.82,60l-1.32.58A37.67,37.67,0,0,0,3.79,95.14h0a37.68,37.68,0,0,0,22.7,34.57l.29.13a72.8,72.8,0,0,1,37.7,37.7l.13.28a37.66,37.66,0,0,0,34.57,22.71,38.11,38.11,0,0,0,8.68-1c12-2.75,21.49-11.73,26.44-23,.09-.22.19-.43.28-.65a70.26,70.26,0,0,1,36-35.63l1.32-.58a37.67,37.67,0,0,0,22.71-34.56h0a37.68,37.68,0,0,0-22.7-34.57l-.29-.12a72.87,72.87,0,0,1-37.71-37.71l-.12-.28A37.66,37.66,0,0,0,99.18-.24Z"/>
    <path class="cls-2" d="M99.18,190.8v1h0a36.65,36.65,0,0,1,33.65,22.11l.13.28a73.49,73.49,0,0,0,38.22,38.22l.29.13a36.66,36.66,0,0,1,0,67.3l-1.32.58a71,71,0,0,0-36.47,36.15l-.29.64c-5,11.47-14.67,19.85-25.74,22.4a37.93,37.93,0,0,1-8.46,1,36.65,36.65,0,0,1-33.66-22.11l-.12-.28A73.49,73.49,0,0,0,27.18,320l-.3-.13a36.67,36.67,0,0,1,0-67.3l1.32-.58a71,71,0,0,0,36.47-36.14l.28-.65c5-11.47,14.68-19.84,25.75-22.4a37.86,37.86,0,0,1,8.46-1v-1m0,0a38.84,38.84,0,0,0-8.69,1c-12,2.76-21.49,11.73-26.43,23-.1.21-.19.43-.29.64A70.17,70.17,0,0,1,27.82,251l-1.32.58A37.67,37.67,0,0,0,3.79,286.18h0a37.68,37.68,0,0,0,22.7,34.57l.29.12a72.85,72.85,0,0,1,37.7,37.71l.13.28a37.66,37.66,0,0,0,34.57,22.71,38.11,38.11,0,0,0,8.68-1c12-2.76,21.49-11.73,26.44-23,.09-.22.19-.43.28-.65a70.26,70.26,0,0,1,36-35.63l1.32-.58a37.67,37.67,0,0,0,22.71-34.56h0a37.68,37.68,0,0,0-22.7-34.57l-.29-.12a72.87,72.87,0,0,1-37.71-37.71l-.12-.28A37.66,37.66,0,0,0,99.18,190.8Z"/>
    <path class="cls-2" d="M99.18,381.84v1h0A36.65,36.65,0,0,1,132.83,405l.13.28a73.49,73.49,0,0,0,38.22,38.22l.29.13a36.66,36.66,0,0,1,0,67.3l-1.32.58a71,71,0,0,0-36.47,36.15l-.29.64c-5,11.47-14.67,19.85-25.74,22.4a37.93,37.93,0,0,1-8.46,1,36.65,36.65,0,0,1-33.66-22.11l-.12-.28A73.49,73.49,0,0,0,27.18,511l-.3-.13a36.67,36.67,0,0,1,0-67.3l1.32-.59a71,71,0,0,0,36.47-36.13l.28-.65c5-11.47,14.68-19.84,25.75-22.4a37.86,37.86,0,0,1,8.46-1v-1m0,0a38.84,38.84,0,0,0-8.69,1c-12,2.76-21.49,11.73-26.43,23-.1.21-.19.43-.29.64a70.17,70.17,0,0,1-35.95,35.63l-1.32.58A37.67,37.67,0,0,0,3.79,477.22h0a37.68,37.68,0,0,0,22.7,34.57l.29.12a72.87,72.87,0,0,1,37.7,37.7l.13.29a37.66,37.66,0,0,0,34.57,22.71,38.68,38.68,0,0,0,8.68-1c12-2.76,21.49-11.73,26.44-23,.09-.22.19-.43.28-.65a70.26,70.26,0,0,1,36-35.63l1.32-.58a37.67,37.67,0,0,0,22.71-34.56h0a37.68,37.68,0,0,0-22.7-34.57l-.29-.13a72.81,72.81,0,0,1-37.71-37.7l-.12-.28a37.66,37.66,0,0,0-34.57-22.71Z"/>
    <path class="cls-2" d="M99.18,572.88v1h0A36.65,36.65,0,0,1,132.83,596l.13.28a73.49,73.49,0,0,0,38.22,38.22l.29.13a36.66,36.66,0,0,1,0,67.3l-1.32.58a71,71,0,0,0-36.47,36.14l-.29.65c-5,11.47-14.67,19.84-25.74,22.4a37.93,37.93,0,0,1-8.46,1,36.65,36.65,0,0,1-33.66-22.11l-.12-.28a73.49,73.49,0,0,0-38.22-38.22l-.3-.13a36.68,36.68,0,0,1,0-67.31l1.32-.58A71,71,0,0,0,64.69,597.9l.28-.65c5-11.47,14.68-19.84,25.75-22.4a37.86,37.86,0,0,1,8.46-1v-1m0,0a38.84,38.84,0,0,0-8.69,1c-12,2.76-21.49,11.73-26.43,23-.1.21-.19.43-.29.64a70.21,70.21,0,0,1-35.95,35.63l-1.32.58A37.67,37.67,0,0,0,3.79,668.26h0a37.66,37.66,0,0,0,22.7,34.56l.29.13a72.87,72.87,0,0,1,37.7,37.7l.13.29a37.66,37.66,0,0,0,34.57,22.71,38.68,38.68,0,0,0,8.68-1c12-2.76,21.49-11.73,26.44-23,.09-.22.19-.43.28-.65a70.26,70.26,0,0,1,36-35.63l1.32-.58a37.67,37.67,0,0,0,22.71-34.56h0a37.67,37.67,0,0,0-22.7-34.57l-.29-.13a72.81,72.81,0,0,1-37.71-37.7l-.12-.28a37.66,37.66,0,0,0-34.57-22.71Z"/>
    <path class="cls-2" d="M99.18,763.92v1h0A36.65,36.65,0,0,1,132.83,787l.13.28a73.53,73.53,0,0,0,38.22,38.22l.29.13a36.66,36.66,0,0,1,0,67.3l-1.32.58a71,71,0,0,0-36.47,36.14l-.29.65c-5,11.47-14.67,19.84-25.74,22.4a37.93,37.93,0,0,1-8.46,1,36.65,36.65,0,0,1-33.66-22.11l-.12-.29a73.51,73.51,0,0,0-38.22-38.21l-.3-.13a36.68,36.68,0,0,1,0-67.31l1.32-.58a71,71,0,0,0,36.47-36.13l.28-.65c5-11.47,14.68-19.84,25.75-22.4a37.86,37.86,0,0,1,8.46-1v-1m0,0a38.84,38.84,0,0,0-8.69,1c-12,2.76-21.49,11.73-26.43,23-.1.21-.19.43-.29.64a70.21,70.21,0,0,1-35.95,35.63l-1.32.58A37.67,37.67,0,0,0,3.79,859.3h0a37.67,37.67,0,0,0,22.7,34.56l.29.13a72.87,72.87,0,0,1,37.7,37.7l.13.29A37.66,37.66,0,0,0,99.18,954.7a38.68,38.68,0,0,0,8.68-1c12-2.76,21.49-11.73,26.44-23,.09-.22.19-.43.28-.65a70.26,70.26,0,0,1,36-35.63l1.32-.58a37.67,37.67,0,0,0,22.71-34.56h0a37.67,37.67,0,0,0-22.7-34.57l-.29-.13a72.85,72.85,0,0,1-37.71-37.7l-.12-.28a37.66,37.66,0,0,0-34.57-22.71Z"/>
    <path class="cls-2" d="M99.18,955v1h0a36.65,36.65,0,0,1,33.65,22.11l.13.28a73.53,73.53,0,0,0,38.22,38.22l.29.13a36.66,36.66,0,0,1,0,67.3l-1.32.58a71,71,0,0,0-36.47,36.14l-.29.65c-5,11.47-14.67,19.84-25.74,22.4a37.93,37.93,0,0,1-8.46,1,36.65,36.65,0,0,1-33.66-22.11l-.12-.29a73.51,73.51,0,0,0-38.22-38.21l-.3-.13a36.68,36.68,0,0,1,0-67.31l1.32-.58A71,71,0,0,0,64.69,980l.28-.65c5-11.47,14.68-19.85,25.75-22.4a37.86,37.86,0,0,1,8.46-1v-1m0,0a38.26,38.26,0,0,0-8.69,1c-12,2.76-21.49,11.73-26.43,23-.1.21-.19.43-.29.64a70.21,70.21,0,0,1-35.95,35.63l-1.32.58a37.67,37.67,0,0,0-22.71,34.56h0a37.67,37.67,0,0,0,22.7,34.56l.29.13a72.87,72.87,0,0,1,37.7,37.7c0,.1.09.19.13.29a37.66,37.66,0,0,0,34.57,22.71,38.68,38.68,0,0,0,8.68-1c12-2.76,21.49-11.73,26.44-23,.09-.22.19-.43.28-.65a70.23,70.23,0,0,1,36-35.63l1.32-.58a37.67,37.67,0,0,0,22.71-34.56v0a37.67,37.67,0,0,0-22.7-34.56l-.29-.13A72.85,72.85,0,0,1,133.87,978l-.12-.28A37.66,37.66,0,0,0,99.18,955Z"/>
    <path class="cls-2" d="M864-.24v1h0a36.65,36.65,0,0,1,33.66,22.11l.12.28A73.53,73.53,0,0,0,936,61.37l.3.13a36.68,36.68,0,0,1,0,67.31l-1.33.57a71,71,0,0,0-36.47,36.15l-.28.65c-5.05,11.46-14.68,19.84-25.75,22.39a37.84,37.84,0,0,1-8.45,1,36.65,36.65,0,0,1-33.66-22.11l-.13-.28A73.51,73.51,0,0,0,792,128.93l-.3-.13a36.67,36.67,0,0,1,0-67.3l1.33-.58a71,71,0,0,0,36.46-36.14l.29-.65c5.05-11.47,14.67-19.84,25.74-22.4a37.93,37.93,0,0,1,8.46-1v-1m0,0a38.68,38.68,0,0,0-8.68,1c-12,2.76-21.49,11.73-26.44,23-.09.21-.19.43-.29.64a70.17,70.17,0,0,1-36,35.63l-1.32.58a37.65,37.65,0,0,0-22.7,34.56h0a37.69,37.69,0,0,0,22.69,34.57l.3.13a72.83,72.83,0,0,1,37.7,37.7l.12.28A37.66,37.66,0,0,0,864,190.54a38.24,38.24,0,0,0,8.68-1c12-2.75,21.49-11.73,26.43-23l.29-.65a70.19,70.19,0,0,1,36-35.63l1.31-.58a37.66,37.66,0,0,0,22.71-34.56h0a37.69,37.69,0,0,0-22.69-34.57l-.3-.12a72.85,72.85,0,0,1-37.7-37.71c0-.09-.08-.19-.13-.28A37.66,37.66,0,0,0,864-.24Z"/>
    <path class="cls-2" d="M864,190.8v1h0a36.65,36.65,0,0,1,33.66,22.11l.12.28A73.53,73.53,0,0,0,936,252.41l.3.13a36.67,36.67,0,0,1,0,67.3l-1.33.58a71,71,0,0,0-36.47,36.15l-.28.64c-5.05,11.47-14.68,19.85-25.75,22.4a37.84,37.84,0,0,1-8.45,1,36.65,36.65,0,0,1-33.66-22.11l-.13-.28A73.51,73.51,0,0,0,792,320l-.3-.13a36.67,36.67,0,0,1,0-67.3L793,252a71,71,0,0,0,36.46-36.14l.29-.65c5.05-11.47,14.67-19.84,25.74-22.4a37.93,37.93,0,0,1,8.46-1v-1m0,0a38.68,38.68,0,0,0-8.68,1c-12,2.76-21.49,11.73-26.44,23-.09.21-.19.43-.29.64a70.17,70.17,0,0,1-36,35.63l-1.32.58a37.65,37.65,0,0,0-22.7,34.56h0a37.69,37.69,0,0,0,22.69,34.57l.3.12a72.89,72.89,0,0,1,37.7,37.71l.12.28A37.66,37.66,0,0,0,864,381.58a38.24,38.24,0,0,0,8.68-1c12-2.76,21.49-11.73,26.43-23l.29-.65a70.19,70.19,0,0,1,36-35.63l1.31-.58a37.66,37.66,0,0,0,22.71-34.56h0a37.69,37.69,0,0,0-22.69-34.57l-.3-.12a72.85,72.85,0,0,1-37.7-37.71c0-.09-.08-.19-.13-.28A37.66,37.66,0,0,0,864,190.8Z"/>
    <path class="cls-2" d="M864,381.84v1h0A36.65,36.65,0,0,1,897.64,405l.12.28A73.53,73.53,0,0,0,936,443.45l.3.13a36.67,36.67,0,0,1,0,67.3l-1.33.58a71,71,0,0,0-36.47,36.15l-.28.64c-5.05,11.47-14.68,19.85-25.75,22.4a37.84,37.84,0,0,1-8.45,1,36.65,36.65,0,0,1-33.66-22.11l-.13-.28A73.51,73.51,0,0,0,792,511l-.3-.13a36.67,36.67,0,0,1,0-67.3L793,443a71,71,0,0,0,36.46-36.13l.29-.65c5.05-11.47,14.67-19.84,25.74-22.4a37.93,37.93,0,0,1,8.46-1v-1m0,0a38.68,38.68,0,0,0-8.68,1c-12,2.76-21.49,11.73-26.44,23-.09.21-.19.43-.29.64a70.17,70.17,0,0,1-36,35.63l-1.32.58a37.65,37.65,0,0,0-22.7,34.56h0a37.69,37.69,0,0,0,22.69,34.57l.3.12a72.9,72.9,0,0,1,37.7,37.7l.12.29A37.66,37.66,0,0,0,864,572.62a38.82,38.82,0,0,0,8.68-1c12-2.76,21.49-11.73,26.43-23l.29-.65a70.19,70.19,0,0,1,36-35.63l1.31-.58a37.66,37.66,0,0,0,22.71-34.56h0a37.69,37.69,0,0,0-22.69-34.57l-.3-.13a72.8,72.8,0,0,1-37.7-37.7c0-.09-.08-.19-.13-.28A37.66,37.66,0,0,0,864,381.84Z"/>
    <path class="cls-2" d="M864,572.88v1h0A36.65,36.65,0,0,1,897.64,596l.12.28A73.53,73.53,0,0,0,936,634.49l.3.13a36.67,36.67,0,0,1,0,67.3l-1.33.58a71,71,0,0,0-36.47,36.14l-.28.65c-5.05,11.47-14.68,19.84-25.75,22.4a37.84,37.84,0,0,1-8.45,1,36.65,36.65,0,0,1-33.66-22.11l-.13-.28A73.49,73.49,0,0,0,792,702.05l-.29-.13a36.68,36.68,0,0,1,0-67.31L793,634a71,71,0,0,0,36.46-36.13l.29-.65c5.05-11.47,14.67-19.84,25.74-22.4a37.93,37.93,0,0,1,8.46-1v-1m0,0a38.68,38.68,0,0,0-8.68,1c-12,2.76-21.49,11.73-26.44,23-.09.21-.19.43-.29.64a70.21,70.21,0,0,1-36,35.63l-1.32.58a37.65,37.65,0,0,0-22.7,34.56h0a37.67,37.67,0,0,0,22.69,34.56l.3.13a72.9,72.9,0,0,1,37.7,37.7l.12.29A37.66,37.66,0,0,0,864,763.66a38.82,38.82,0,0,0,8.68-1c12-2.76,21.49-11.73,26.43-23l.29-.65a70.19,70.19,0,0,1,36-35.63l1.31-.58a37.66,37.66,0,0,0,22.71-34.56h0a37.68,37.68,0,0,0-22.69-34.57l-.3-.13a72.8,72.8,0,0,1-37.7-37.7c0-.09-.08-.19-.13-.28A37.66,37.66,0,0,0,864,572.88Z"/>
    <path class="cls-2" d="M864,763.92v1h0A36.65,36.65,0,0,1,897.64,787l.12.28A73.56,73.56,0,0,0,936,825.53l.3.13a36.67,36.67,0,0,1,0,67.3l-1.33.58a71,71,0,0,0-36.47,36.14l-.28.65c-5.05,11.47-14.68,19.84-25.75,22.4a37.84,37.84,0,0,1-8.45,1,36.65,36.65,0,0,1-33.66-22.11l-.13-.29A73.53,73.53,0,0,0,792,893.09l-.3-.13a36.68,36.68,0,0,1,0-67.31l1.33-.58a71,71,0,0,0,36.46-36.13l.29-.65c5.05-11.47,14.67-19.84,25.74-22.4a37.93,37.93,0,0,1,8.46-1v-1m0,0a38.68,38.68,0,0,0-8.68,1c-12,2.76-21.49,11.73-26.44,23-.09.21-.19.43-.29.64a70.21,70.21,0,0,1-36,35.63l-1.32.58a37.65,37.65,0,0,0-22.7,34.56h0a37.68,37.68,0,0,0,22.69,34.56l.3.13a72.9,72.9,0,0,1,37.7,37.7l.12.29A37.66,37.66,0,0,0,864,954.7a38.82,38.82,0,0,0,8.68-1c12-2.76,21.49-11.73,26.43-23l.29-.65a70.19,70.19,0,0,1,36-35.63l1.31-.58a37.66,37.66,0,0,0,22.71-34.56h0a37.68,37.68,0,0,0-22.69-34.57l-.3-.13a72.83,72.83,0,0,1-37.7-37.7c0-.09-.08-.19-.13-.28A37.66,37.66,0,0,0,864,763.92Z"/>
    <path class="cls-2" d="M864,955v1h0a36.65,36.65,0,0,1,33.66,22.11l.12.28A73.56,73.56,0,0,0,936,1016.57l.3.13a36.67,36.67,0,0,1,0,67.3l-1.33.58a71,71,0,0,0-36.47,36.14l-.28.65c-5.05,11.47-14.68,19.84-25.75,22.4a37.84,37.84,0,0,1-8.45,1,36.65,36.65,0,0,1-33.66-22.11l-.13-.29A73.53,73.53,0,0,0,792,1084.13l-.3-.13a36.68,36.68,0,0,1,0-67.31l1.33-.58A71,71,0,0,0,829.49,980l.29-.65c5.05-11.47,14.67-19.85,25.74-22.4a37.93,37.93,0,0,1,8.46-1v-1m0,0a38.11,38.11,0,0,0-8.68,1c-12,2.76-21.49,11.73-26.44,23-.09.21-.19.43-.29.64a70.21,70.21,0,0,1-36,35.63l-1.32.58a37.65,37.65,0,0,0-22.7,34.56h0a37.68,37.68,0,0,0,22.69,34.56l.3.13a72.9,72.9,0,0,1,37.7,37.7l.12.29A37.66,37.66,0,0,0,864,1145.74a38.82,38.82,0,0,0,8.68-1c12-2.76,21.49-11.73,26.43-23l.29-.65a70.15,70.15,0,0,1,36-35.63l1.31-.58a37.66,37.66,0,0,0,22.71-34.56v0a37.68,37.68,0,0,0-22.69-34.56l-.3-.13a72.83,72.83,0,0,1-37.7-37.7c0-.09-.08-.19-.13-.28A37.66,37.66,0,0,0,864,955Z"/>
    <path class="cls-2" d="M1055.18-.24v1h0a36.65,36.65,0,0,1,33.66,22.11l.08.2,0,.08a73.53,73.53,0,0,0,38.22,38.22l.3.13a36.68,36.68,0,0,1,0,67.31l-1.33.57a71,71,0,0,0-36.47,36.15l-.28.65c-5.05,11.46-14.68,19.84-25.75,22.39a37.84,37.84,0,0,1-8.45,1,36.65,36.65,0,0,1-33.66-22.11l-.13-.28a73.51,73.51,0,0,0-38.21-38.22l-.3-.13a36.67,36.67,0,0,1,0-67.3l1.33-.58a71,71,0,0,0,36.46-36.14l.29-.65c5-11.47,14.67-19.84,25.74-22.4a37.93,37.93,0,0,1,8.46-1v-1m0,0a38.68,38.68,0,0,0-8.68,1c-12,2.76-21.49,11.73-26.44,23l-.28.64a70.23,70.23,0,0,1-36,35.63l-1.32.58a37.65,37.65,0,0,0-22.7,34.56h0a37.69,37.69,0,0,0,22.69,34.57l.3.13a72.83,72.83,0,0,1,37.7,37.7l.12.28a37.66,37.66,0,0,0,34.58,22.71,38.24,38.24,0,0,0,8.68-1c12-2.75,21.49-11.73,26.43-23l.29-.65a70.19,70.19,0,0,1,36-35.63l1.31-.58a37.66,37.66,0,0,0,22.71-34.56h0a37.69,37.69,0,0,0-22.69-34.57l-.3-.12a72.85,72.85,0,0,1-37.7-37.71c0-.09-.08-.19-.13-.28A37.66,37.66,0,0,0,1055.18-.24Z"/>
    <path class="cls-2" d="M1055.18,190.8v1h0a36.65,36.65,0,0,1,33.66,22.11l.08.2,0,.08a73.53,73.53,0,0,0,38.22,38.22l.3.13a36.67,36.67,0,0,1,0,67.3l-1.33.58a71,71,0,0,0-36.47,36.15l-.28.64c-5.05,11.47-14.68,19.85-25.75,22.4a37.84,37.84,0,0,1-8.45,1,36.65,36.65,0,0,1-33.66-22.11l-.13-.28A73.51,73.51,0,0,0,983.19,320l-.3-.13a36.67,36.67,0,0,1,0-67.3l1.33-.58a71,71,0,0,0,36.46-36.14l.29-.65c5-11.47,14.67-19.84,25.74-22.4a37.93,37.93,0,0,1,8.46-1v-1m0,0a38.68,38.68,0,0,0-8.68,1c-12,2.76-21.49,11.73-26.44,23l-.28.64a70.23,70.23,0,0,1-36,35.63l-1.32.58a37.65,37.65,0,0,0-22.7,34.56h0a37.69,37.69,0,0,0,22.69,34.57l.3.12a72.89,72.89,0,0,1,37.7,37.71l.12.28a37.66,37.66,0,0,0,34.58,22.71,38.24,38.24,0,0,0,8.68-1c12-2.76,21.49-11.73,26.43-23l.29-.65a70.19,70.19,0,0,1,36-35.63l1.31-.58a37.66,37.66,0,0,0,22.71-34.56h0a37.69,37.69,0,0,0-22.69-34.57l-.3-.12a72.85,72.85,0,0,1-37.7-37.71c0-.09-.08-.19-.13-.28a37.66,37.66,0,0,0-34.57-22.71Z"/>
    <path class="cls-2" d="M1055.18,381.84v1h0A36.65,36.65,0,0,1,1088.84,405l.08.19,0,.09a73.53,73.53,0,0,0,38.22,38.22l.3.13a36.67,36.67,0,0,1,0,67.3l-1.33.58a71,71,0,0,0-36.47,36.15l-.28.64c-5.05,11.47-14.68,19.85-25.75,22.4a37.84,37.84,0,0,1-8.45,1,36.65,36.65,0,0,1-33.66-22.11l-.13-.28A73.51,73.51,0,0,0,983.19,511l-.3-.13a36.67,36.67,0,0,1,0-67.3l1.33-.59a71,71,0,0,0,36.46-36.13l.29-.65c5-11.47,14.67-19.84,25.74-22.4a37.93,37.93,0,0,1,8.46-1v-1m0,0a38.68,38.68,0,0,0-8.68,1c-12,2.76-21.49,11.73-26.44,23l-.28.64a70.23,70.23,0,0,1-36,35.63l-1.32.58a37.65,37.65,0,0,0-22.7,34.56h0a37.69,37.69,0,0,0,22.69,34.57l.3.12a72.9,72.9,0,0,1,37.7,37.7l.12.29a37.66,37.66,0,0,0,34.58,22.71,38.82,38.82,0,0,0,8.68-1c12-2.76,21.49-11.73,26.43-23l.29-.65a70.19,70.19,0,0,1,36-35.63l1.31-.58a37.66,37.66,0,0,0,22.71-34.56h0a37.69,37.69,0,0,0-22.69-34.57l-.3-.13a72.8,72.8,0,0,1-37.7-37.7c0-.09-.08-.19-.13-.28a37.66,37.66,0,0,0-34.57-22.71Z"/>
    <path class="cls-2" d="M1055.18,572.88v1h0A36.65,36.65,0,0,1,1088.84,596l.08.2,0,.08a73.53,73.53,0,0,0,38.22,38.22l.3.13a36.67,36.67,0,0,1,0,67.3l-1.33.58a71,71,0,0,0-36.47,36.14l-.28.65c-5.05,11.47-14.68,19.84-25.75,22.4a37.84,37.84,0,0,1-8.45,1,36.65,36.65,0,0,1-33.66-22.11l-.13-.28a73.51,73.51,0,0,0-38.21-38.22l-.3-.13a36.68,36.68,0,0,1,0-67.31l1.33-.58a71,71,0,0,0,36.46-36.13l.29-.65c5-11.47,14.67-19.84,25.74-22.4a37.93,37.93,0,0,1,8.46-1v-1m0,0a38.68,38.68,0,0,0-8.68,1c-12,2.76-21.49,11.73-26.44,23l-.28.64a70.26,70.26,0,0,1-36,35.63l-1.32.58a37.65,37.65,0,0,0-22.7,34.56h0a37.67,37.67,0,0,0,22.69,34.56l.3.13a72.9,72.9,0,0,1,37.7,37.7l.12.29a37.66,37.66,0,0,0,34.58,22.71,38.82,38.82,0,0,0,8.68-1c12-2.76,21.49-11.73,26.43-23l.29-.65a70.19,70.19,0,0,1,36-35.63l1.31-.58a37.66,37.66,0,0,0,22.71-34.56h0a37.68,37.68,0,0,0-22.69-34.57l-.3-.13a72.8,72.8,0,0,1-37.7-37.7c0-.09-.08-.19-.13-.28a37.66,37.66,0,0,0-34.57-22.71Z"/>
    <path class="cls-2" d="M1055.18,763.92v1h0A36.65,36.65,0,0,1,1088.84,787l.09.2,0,.08a73.56,73.56,0,0,0,38.22,38.22l.3.13a36.67,36.67,0,0,1,0,67.3l-1.33.58a71,71,0,0,0-36.47,36.14l-.28.65c-5.05,11.47-14.68,19.84-25.75,22.4a37.84,37.84,0,0,1-8.45,1,36.65,36.65,0,0,1-33.66-22.11l-.13-.29a73.53,73.53,0,0,0-38.21-38.21l-.25-.11-.05,0a36.68,36.68,0,0,1,0-67.31l1.33-.58a71,71,0,0,0,36.46-36.13l.29-.65c5-11.47,14.67-19.84,25.74-22.4a37.93,37.93,0,0,1,8.46-1v-1m0,0a38.68,38.68,0,0,0-8.68,1c-12,2.76-21.49,11.73-26.44,23l-.28.64a70.26,70.26,0,0,1-36,35.63l-1.32.58a37.65,37.65,0,0,0-22.7,34.56h0a37.68,37.68,0,0,0,22.69,34.56l.3.13a72.9,72.9,0,0,1,37.7,37.7l.12.29a37.66,37.66,0,0,0,34.58,22.71,38.82,38.82,0,0,0,8.68-1c12-2.76,21.49-11.73,26.43-23l.29-.65a70.19,70.19,0,0,1,36-35.63l1.31-.58a37.66,37.66,0,0,0,22.71-34.56h0a37.68,37.68,0,0,0-22.69-34.57l-.3-.13a72.83,72.83,0,0,1-37.7-37.7c0-.09-.08-.19-.13-.28a37.66,37.66,0,0,0-34.57-22.71Z"/>
    <path class="cls-2" d="M1055.18,955v1h0a36.65,36.65,0,0,1,33.66,22.11l.08.2,0,.08a73.56,73.56,0,0,0,38.22,38.22l.3.13a36.67,36.67,0,0,1,0,67.3l-1.33.58a71,71,0,0,0-36.47,36.14l-.28.65c-5.05,11.47-14.68,19.84-25.75,22.4a37.84,37.84,0,0,1-8.45,1,36.65,36.65,0,0,1-33.66-22.11l-.13-.29a73.53,73.53,0,0,0-38.21-38.21l-.3-.13a36.68,36.68,0,0,1,0-67.31l1.33-.58A71,71,0,0,0,1020.69,980l.29-.65c5-11.47,14.67-19.85,25.74-22.4a37.93,37.93,0,0,1,8.46-1v-1m0,0a38.11,38.11,0,0,0-8.68,1c-12,2.76-21.49,11.73-26.44,23l-.28.64a70.26,70.26,0,0,1-36,35.63l-1.32.58a37.65,37.65,0,0,0-22.7,34.56h0a37.68,37.68,0,0,0,22.69,34.56l.3.13a72.9,72.9,0,0,1,37.7,37.7l.12.29a37.66,37.66,0,0,0,34.58,22.71,38.82,38.82,0,0,0,8.68-1c12-2.76,21.49-11.73,26.43-23l.29-.65a70.15,70.15,0,0,1,36-35.63l1.31-.58a37.66,37.66,0,0,0,22.71-34.56v0a37.68,37.68,0,0,0-22.69-34.56l-.3-.13a72.83,72.83,0,0,1-37.7-37.7c0-.09-.08-.19-.13-.28A37.66,37.66,0,0,0,1055.18,955Z"/>
    <path class="cls-2" d="M1246.38-.24v1h0A36.65,36.65,0,0,1,1280,22.87l.06.15.06.13a73.53,73.53,0,0,0,38.22,38.22l.3.13a36.68,36.68,0,0,1,0,67.31l-1.33.57a71,71,0,0,0-36.46,36.15l-.29.65c-5,11.46-14.67,19.84-25.74,22.39a37.93,37.93,0,0,1-8.46,1,36.65,36.65,0,0,1-33.66-22.11l-.09-.21,0-.07a73.51,73.51,0,0,0-38.21-38.22l-.3-.13a36.67,36.67,0,0,1,0-67.3l1.33-.58a71,71,0,0,0,36.46-36.14l.29-.65c5-11.47,14.67-19.84,25.74-22.4a37.93,37.93,0,0,1,8.46-1v-1m0,0a38.75,38.75,0,0,0-8.68,1c-12,2.76-21.49,11.73-26.44,23l-.28.64A70.21,70.21,0,0,1,1175,60l-1.33.58A37.65,37.65,0,0,0,1151,95.14h0a37.69,37.69,0,0,0,22.69,34.57l.3.13a72.83,72.83,0,0,1,37.7,37.7l.12.28a37.67,37.67,0,0,0,34.58,22.71,38.24,38.24,0,0,0,8.68-1c12-2.75,21.49-11.73,26.43-23l.29-.65a70.19,70.19,0,0,1,36-35.63l1.32-.58a37.65,37.65,0,0,0,22.7-34.56h0a37.69,37.69,0,0,0-22.69-34.57l-.3-.12a72.89,72.89,0,0,1-37.7-37.71l-.12-.28A37.68,37.68,0,0,0,1246.38-.24Z"/>
    <path class="cls-2" d="M1246.38,190.8v1h0A36.65,36.65,0,0,1,1280,213.91l.07.16.05.12a73.53,73.53,0,0,0,38.22,38.22l.3.13a36.67,36.67,0,0,1,0,67.3l-1.33.58a71,71,0,0,0-36.46,36.15l-.29.64c-5,11.47-14.67,19.85-25.74,22.4a37.93,37.93,0,0,1-8.46,1,36.65,36.65,0,0,1-33.66-22.11l-.1-.24,0,0A73.51,73.51,0,0,0,1174.39,320l-.3-.13a36.67,36.67,0,0,1,0-67.3l1.33-.58a71,71,0,0,0,36.46-36.14l.29-.65c5-11.47,14.67-19.84,25.74-22.4a37.93,37.93,0,0,1,8.46-1v-1m0,0a38.75,38.75,0,0,0-8.68,1c-12,2.76-21.49,11.73-26.44,23l-.28.64A70.21,70.21,0,0,1,1175,251l-1.33.58a37.65,37.65,0,0,0-22.7,34.56h0a37.69,37.69,0,0,0,22.69,34.57l.3.12a72.89,72.89,0,0,1,37.7,37.71l.12.28a37.67,37.67,0,0,0,34.58,22.71,38.24,38.24,0,0,0,8.68-1c12-2.76,21.49-11.73,26.43-23l.29-.65a70.19,70.19,0,0,1,36-35.63l1.32-.58a37.65,37.65,0,0,0,22.7-34.56h0a37.69,37.69,0,0,0-22.69-34.57l-.3-.12a72.89,72.89,0,0,1-37.7-37.71l-.12-.28a37.68,37.68,0,0,0-34.58-22.71Z"/>
    <path class="cls-2" d="M1246.38,381.84v1h0A36.65,36.65,0,0,1,1280,405l.06.15.06.13a73.53,73.53,0,0,0,38.22,38.22l.3.13a36.67,36.67,0,0,1,0,67.3l-1.33.58a71,71,0,0,0-36.46,36.15l-.29.64c-5,11.47-14.67,19.85-25.74,22.4a37.93,37.93,0,0,1-8.46,1,36.65,36.65,0,0,1-33.66-22.11l-.09-.2,0-.08A73.51,73.51,0,0,0,1174.39,511l-.3-.13a36.67,36.67,0,0,1,0-67.3l1.33-.59a71,71,0,0,0,36.46-36.13l.29-.65c5-11.47,14.67-19.84,25.74-22.4a37.93,37.93,0,0,1,8.46-1v-1m0,0a38.75,38.75,0,0,0-8.68,1c-12,2.76-21.49,11.73-26.44,23l-.28.64a70.21,70.21,0,0,1-36,35.63l-1.33.58a37.65,37.65,0,0,0-22.7,34.56h0a37.69,37.69,0,0,0,22.69,34.57l.3.12a72.9,72.9,0,0,1,37.7,37.7l.12.29a37.67,37.67,0,0,0,34.58,22.71,38.82,38.82,0,0,0,8.68-1c12-2.76,21.49-11.73,26.43-23l.29-.65a70.19,70.19,0,0,1,36-35.63l1.32-.58a37.65,37.65,0,0,0,22.7-34.56h0a37.69,37.69,0,0,0-22.69-34.57l-.3-.13a72.83,72.83,0,0,1-37.7-37.7l-.12-.28a37.68,37.68,0,0,0-34.58-22.71Z"/>
    <path class="cls-2" d="M1246.38,572.88v1h0A36.65,36.65,0,0,1,1280,596l.07.16.05.12a73.53,73.53,0,0,0,38.22,38.22l.3.13a36.67,36.67,0,0,1,0,67.3l-1.33.58a71,71,0,0,0-36.46,36.14l-.29.65c-5,11.47-14.67,19.84-25.74,22.4a37.93,37.93,0,0,1-8.46,1,36.65,36.65,0,0,1-33.66-22.11l-.09-.2,0-.08A73.57,73.57,0,0,0,1174.36,702l-.27-.11a36.68,36.68,0,0,1,0-67.31l1.33-.58a71,71,0,0,0,36.46-36.13l.29-.65c5-11.47,14.67-19.84,25.74-22.4a37.93,37.93,0,0,1,8.46-1v-1m0,0a38.75,38.75,0,0,0-8.68,1c-12,2.76-21.49,11.73-26.44,23l-.28.64a70.24,70.24,0,0,1-36,35.63l-1.33.58a37.65,37.65,0,0,0-22.7,34.56h0a37.67,37.67,0,0,0,22.69,34.56l.3.13a72.9,72.9,0,0,1,37.7,37.7l.12.29a37.67,37.67,0,0,0,34.58,22.71,38.82,38.82,0,0,0,8.68-1c12-2.76,21.49-11.73,26.43-23l.29-.65a70.19,70.19,0,0,1,36-35.63l1.32-.58a37.65,37.65,0,0,0,22.7-34.56h0a37.68,37.68,0,0,0-22.69-34.57l-.3-.13a72.83,72.83,0,0,1-37.7-37.7l-.12-.28a37.68,37.68,0,0,0-34.58-22.71Z"/>
    <path class="cls-2" d="M1246.38,763.92v1h0A36.65,36.65,0,0,1,1280,787l.07.16.05.12a73.56,73.56,0,0,0,38.22,38.22l.3.13a36.67,36.67,0,0,1,0,67.3l-1.33.58a71,71,0,0,0-36.46,36.14l-.29.65c-5,11.47-14.67,19.84-25.74,22.4a37.93,37.93,0,0,1-8.46,1,36.65,36.65,0,0,1-33.66-22.11l-.09-.2,0-.09a73.53,73.53,0,0,0-38.21-38.21l-.3-.13a36.68,36.68,0,0,1,0-67.31l1.33-.58a71,71,0,0,0,36.46-36.13l.29-.65c5-11.47,14.67-19.84,25.74-22.4a37.93,37.93,0,0,1,8.46-1v-1m0,0a38.75,38.75,0,0,0-8.68,1c-12,2.76-21.49,11.73-26.44,23l-.28.64a70.24,70.24,0,0,1-36,35.63l-1.33.58A37.65,37.65,0,0,0,1151,859.3h0a37.68,37.68,0,0,0,22.69,34.56l.3.13a72.9,72.9,0,0,1,37.7,37.7l.12.29a37.67,37.67,0,0,0,34.58,22.71,38.82,38.82,0,0,0,8.68-1c12-2.76,21.49-11.73,26.43-23l.29-.65a70.19,70.19,0,0,1,36-35.63l1.32-.58a37.65,37.65,0,0,0,22.7-34.56h0a37.68,37.68,0,0,0-22.69-34.57l-.3-.13a72.87,72.87,0,0,1-37.7-37.7l-.12-.28a37.68,37.68,0,0,0-34.58-22.71Z"/>
    <path class="cls-2" d="M1246.38,955v1h0A36.65,36.65,0,0,1,1280,978.07l.07.16.05.12a73.56,73.56,0,0,0,38.22,38.22l.3.13a36.67,36.67,0,0,1,0,67.3l-1.33.58a71,71,0,0,0-36.46,36.14l-.29.65c-5,11.47-14.67,19.84-25.74,22.4a37.93,37.93,0,0,1-8.46,1,36.65,36.65,0,0,1-33.66-22.11l-.09-.2,0-.09a73.53,73.53,0,0,0-38.21-38.21l-.3-.13a36.68,36.68,0,0,1,0-67.31l1.33-.58A71,71,0,0,0,1211.89,980l.29-.65c5-11.47,14.67-19.85,25.74-22.4a37.93,37.93,0,0,1,8.46-1v-1m0,0a38.18,38.18,0,0,0-8.68,1c-12,2.76-21.49,11.73-26.44,23l-.28.64a70.24,70.24,0,0,1-36,35.63l-1.33.58a37.65,37.65,0,0,0-22.7,34.56h0a37.68,37.68,0,0,0,22.69,34.56l.3.13a72.9,72.9,0,0,1,37.7,37.7l.12.29a37.67,37.67,0,0,0,34.58,22.71,38.82,38.82,0,0,0,8.68-1c12-2.76,21.49-11.73,26.43-23l.29-.65a70.15,70.15,0,0,1,36-35.63l1.32-.58a37.65,37.65,0,0,0,22.7-34.56v0a37.68,37.68,0,0,0-22.69-34.56l-.3-.13a72.87,72.87,0,0,1-37.7-37.7l-.12-.28A37.68,37.68,0,0,0,1246.38,955Z"/>
    <path class="cls-2" d="M1437.38-.24v1h0A36.65,36.65,0,0,1,1471,22.87l.06.15.06.13a73.53,73.53,0,0,0,38.22,38.22l.3.13a36.68,36.68,0,0,1,0,67.31l-1.33.57a71,71,0,0,0-36.46,36.15l-.29.65c-5,11.46-14.67,19.84-25.74,22.39a37.93,37.93,0,0,1-8.46,1,36.65,36.65,0,0,1-33.66-22.11l-.09-.21,0-.07a73.51,73.51,0,0,0-38.21-38.22l-.3-.13a36.67,36.67,0,0,1,0-67.3l1.33-.58a71,71,0,0,0,36.46-36.14l.29-.65c5-11.47,14.67-19.84,25.74-22.4a37.93,37.93,0,0,1,8.46-1v-1m0,0a38.75,38.75,0,0,0-8.68,1c-12,2.76-21.49,11.73-26.44,23l-.28.64A70.21,70.21,0,0,1,1366,60l-1.33.58A37.65,37.65,0,0,0,1342,95.14h0a37.69,37.69,0,0,0,22.69,34.57l.3.13a72.83,72.83,0,0,1,37.7,37.7l.12.28a37.67,37.67,0,0,0,34.58,22.71,38.24,38.24,0,0,0,8.68-1c12-2.75,21.49-11.73,26.43-23l.29-.65a70.19,70.19,0,0,1,36-35.63l1.32-.58a37.65,37.65,0,0,0,22.7-34.56h0a37.69,37.69,0,0,0-22.69-34.57l-.3-.12a72.89,72.89,0,0,1-37.7-37.71l-.12-.28A37.68,37.68,0,0,0,1437.38-.24Z"/>
    <path class="cls-2" d="M1437.38,190.8v1h0A36.65,36.65,0,0,1,1471,213.91l.07.16.05.12a73.53,73.53,0,0,0,38.22,38.22l.3.13a36.67,36.67,0,0,1,0,67.3l-1.33.58a71,71,0,0,0-36.46,36.15l-.29.64c-5,11.47-14.67,19.85-25.74,22.4a37.93,37.93,0,0,1-8.46,1,36.65,36.65,0,0,1-33.66-22.11l-.1-.24,0,0A73.51,73.51,0,0,0,1365.39,320l-.3-.13a36.67,36.67,0,0,1,0-67.3l1.33-.58a71,71,0,0,0,36.46-36.14l.29-.65c5-11.47,14.67-19.84,25.74-22.4a37.93,37.93,0,0,1,8.46-1v-1m0,0a38.75,38.75,0,0,0-8.68,1c-12,2.76-21.49,11.73-26.44,23l-.28.64A70.21,70.21,0,0,1,1366,251l-1.33.58a37.65,37.65,0,0,0-22.7,34.56h0a37.69,37.69,0,0,0,22.69,34.57l.3.12a72.89,72.89,0,0,1,37.7,37.71l.12.28a37.67,37.67,0,0,0,34.58,22.71,38.24,38.24,0,0,0,8.68-1c12-2.76,21.49-11.73,26.43-23l.29-.65a70.19,70.19,0,0,1,36-35.63l1.32-.58a37.65,37.65,0,0,0,22.7-34.56h0a37.69,37.69,0,0,0-22.69-34.57l-.3-.12a72.89,72.89,0,0,1-37.7-37.71l-.12-.28a37.68,37.68,0,0,0-34.58-22.71Z"/>
    <path class="cls-2" d="M1437.38,381.84v1h0A36.65,36.65,0,0,1,1471,405l.06.15.06.13a73.53,73.53,0,0,0,38.22,38.22l.3.13a36.67,36.67,0,0,1,0,67.3l-1.33.58a71,71,0,0,0-36.46,36.15l-.29.64c-5,11.47-14.67,19.85-25.74,22.4a37.93,37.93,0,0,1-8.46,1,36.65,36.65,0,0,1-33.66-22.11l-.09-.2,0-.08A73.51,73.51,0,0,0,1365.39,511l-.3-.13a36.67,36.67,0,0,1,0-67.3l1.33-.59a71,71,0,0,0,36.46-36.13l.29-.65c5-11.47,14.67-19.84,25.74-22.4a37.93,37.93,0,0,1,8.46-1v-1m0,0a38.75,38.75,0,0,0-8.68,1c-12,2.76-21.49,11.73-26.44,23l-.28.64a70.21,70.21,0,0,1-36,35.63l-1.33.58a37.65,37.65,0,0,0-22.7,34.56h0a37.69,37.69,0,0,0,22.69,34.57l.3.12a72.9,72.9,0,0,1,37.7,37.7l.12.29a37.67,37.67,0,0,0,34.58,22.71,38.82,38.82,0,0,0,8.68-1c12-2.76,21.49-11.73,26.43-23l.29-.65a70.19,70.19,0,0,1,36-35.63l1.32-.58a37.65,37.65,0,0,0,22.7-34.56h0a37.69,37.69,0,0,0-22.69-34.57l-.3-.13a72.83,72.83,0,0,1-37.7-37.7l-.12-.28a37.68,37.68,0,0,0-34.58-22.71Z"/>
    <path class="cls-2" d="M1437.38,572.88v1h0A36.65,36.65,0,0,1,1471,596l.07.16.05.12a73.53,73.53,0,0,0,38.22,38.22l.3.13a36.67,36.67,0,0,1,0,67.3l-1.33.58a71,71,0,0,0-36.46,36.14l-.29.65c-5,11.47-14.67,19.84-25.74,22.4a37.93,37.93,0,0,1-8.46,1,36.65,36.65,0,0,1-33.66-22.11l-.09-.2,0-.08A73.57,73.57,0,0,0,1365.36,702l-.27-.11a36.68,36.68,0,0,1,0-67.31l1.33-.58a71,71,0,0,0,36.46-36.13l.29-.65c5-11.47,14.67-19.84,25.74-22.4a37.93,37.93,0,0,1,8.46-1v-1m0,0a38.75,38.75,0,0,0-8.68,1c-12,2.76-21.49,11.73-26.44,23l-.28.64a70.24,70.24,0,0,1-36,35.63l-1.33.58a37.65,37.65,0,0,0-22.7,34.56h0a37.67,37.67,0,0,0,22.69,34.56l.3.13a72.9,72.9,0,0,1,37.7,37.7l.12.29a37.67,37.67,0,0,0,34.58,22.71,38.82,38.82,0,0,0,8.68-1c12-2.76,21.49-11.73,26.43-23l.29-.65a70.19,70.19,0,0,1,36-35.63l1.32-.58a37.65,37.65,0,0,0,22.7-34.56h0a37.68,37.68,0,0,0-22.69-34.57l-.3-.13a72.83,72.83,0,0,1-37.7-37.7l-.12-.28a37.68,37.68,0,0,0-34.58-22.71Z"/>
    <path class="cls-2" d="M1437.38,763.92v1h0A36.65,36.65,0,0,1,1471,787l.07.16.05.12a73.56,73.56,0,0,0,38.22,38.22l.3.13a36.67,36.67,0,0,1,0,67.3l-1.33.58a71,71,0,0,0-36.46,36.14l-.29.65c-5,11.47-14.67,19.84-25.74,22.4a37.93,37.93,0,0,1-8.46,1,36.65,36.65,0,0,1-33.66-22.11l-.09-.2,0-.09a73.53,73.53,0,0,0-38.21-38.21l-.3-.13a36.68,36.68,0,0,1,0-67.31l1.33-.58a71,71,0,0,0,36.46-36.13l.29-.65c5-11.47,14.67-19.84,25.74-22.4a37.93,37.93,0,0,1,8.46-1v-1m0,0a38.75,38.75,0,0,0-8.68,1c-12,2.76-21.49,11.73-26.44,23l-.28.64a70.24,70.24,0,0,1-36,35.63l-1.33.58A37.65,37.65,0,0,0,1342,859.3h0a37.68,37.68,0,0,0,22.69,34.56l.3.13a72.9,72.9,0,0,1,37.7,37.7l.12.29a37.67,37.67,0,0,0,34.58,22.71,38.82,38.82,0,0,0,8.68-1c12-2.76,21.49-11.73,26.43-23l.29-.65a70.19,70.19,0,0,1,36-35.63l1.32-.58a37.65,37.65,0,0,0,22.7-34.56h0a37.68,37.68,0,0,0-22.69-34.57l-.3-.13a72.87,72.87,0,0,1-37.7-37.7l-.12-.28a37.68,37.68,0,0,0-34.58-22.71Z"/>
    <path class="cls-2" d="M1437.38,955v1h0A36.65,36.65,0,0,1,1471,978.07l.07.16.05.12a73.56,73.56,0,0,0,38.22,38.22l.3.13a36.67,36.67,0,0,1,0,67.3l-1.33.58a71,71,0,0,0-36.46,36.14l-.29.65c-5,11.47-14.67,19.84-25.74,22.4a37.93,37.93,0,0,1-8.46,1,36.65,36.65,0,0,1-33.66-22.11l-.09-.2,0-.09a73.53,73.53,0,0,0-38.21-38.21l-.3-.13a36.68,36.68,0,0,1,0-67.31l1.33-.58A71,71,0,0,0,1402.89,980l.29-.65c5-11.47,14.67-19.85,25.74-22.4a37.93,37.93,0,0,1,8.46-1v-1m0,0a38.18,38.18,0,0,0-8.68,1c-12,2.76-21.49,11.73-26.44,23l-.28.64a70.24,70.24,0,0,1-36,35.63l-1.33.58a37.65,37.65,0,0,0-22.7,34.56h0a37.68,37.68,0,0,0,22.69,34.56l.3.13a72.9,72.9,0,0,1,37.7,37.7l.12.29a37.67,37.67,0,0,0,34.58,22.71,38.82,38.82,0,0,0,8.68-1c12-2.76,21.49-11.73,26.43-23l.29-.65a70.15,70.15,0,0,1,36-35.63l1.32-.58a37.65,37.65,0,0,0,22.7-34.56v0a37.68,37.68,0,0,0-22.69-34.56l-.3-.13a72.87,72.87,0,0,1-37.7-37.7l-.12-.28A37.68,37.68,0,0,0,1437.38,955Z"/>
    <path class="cls-2" d="M1628.38-.24v1h0A36.65,36.65,0,0,1,1662,22.87l.06.15.06.13a73.53,73.53,0,0,0,38.22,38.22l.3.13a36.68,36.68,0,0,1,0,67.31l-1.33.57a71,71,0,0,0-36.46,36.15l-.29.65c-5,11.46-14.67,19.84-25.74,22.39a37.93,37.93,0,0,1-8.46,1,36.65,36.65,0,0,1-33.66-22.11l-.09-.21,0-.07a73.51,73.51,0,0,0-38.21-38.22l-.3-.13a36.67,36.67,0,0,1,0-67.3l1.33-.58a71,71,0,0,0,36.46-36.14l.29-.65c5-11.47,14.67-19.84,25.74-22.4a37.93,37.93,0,0,1,8.46-1v-1m0,0a38.75,38.75,0,0,0-8.68,1c-12,2.76-21.49,11.73-26.44,23l-.28.64A70.21,70.21,0,0,1,1557,60l-1.33.58A37.65,37.65,0,0,0,1533,95.14h0a37.69,37.69,0,0,0,22.69,34.57l.3.13a72.83,72.83,0,0,1,37.7,37.7l.12.28a37.67,37.67,0,0,0,34.58,22.71,38.24,38.24,0,0,0,8.68-1c12-2.75,21.49-11.73,26.43-23l.29-.65a70.19,70.19,0,0,1,36-35.63l1.32-.58a37.65,37.65,0,0,0,22.7-34.56h0a37.69,37.69,0,0,0-22.69-34.57l-.3-.12a72.89,72.89,0,0,1-37.7-37.71l-.12-.28A37.68,37.68,0,0,0,1628.38-.24Z"/>
    <path class="cls-2" d="M1628.38,190.8v1h0A36.65,36.65,0,0,1,1662,213.91l.07.16.05.12a73.53,73.53,0,0,0,38.22,38.22l.3.13a36.67,36.67,0,0,1,0,67.3l-1.33.58a71,71,0,0,0-36.46,36.15l-.29.64c-5,11.47-14.67,19.85-25.74,22.4a37.93,37.93,0,0,1-8.46,1,36.65,36.65,0,0,1-33.66-22.11l-.1-.24,0,0A73.51,73.51,0,0,0,1556.39,320l-.3-.13a36.67,36.67,0,0,1,0-67.3l1.33-.58a71,71,0,0,0,36.46-36.14l.29-.65c5-11.47,14.67-19.84,25.74-22.4a37.93,37.93,0,0,1,8.46-1v-1m0,0a38.75,38.75,0,0,0-8.68,1c-12,2.76-21.49,11.73-26.44,23l-.28.64A70.21,70.21,0,0,1,1557,251l-1.33.58a37.65,37.65,0,0,0-22.7,34.56h0a37.69,37.69,0,0,0,22.69,34.57l.3.12a72.89,72.89,0,0,1,37.7,37.71l.12.28a37.67,37.67,0,0,0,34.58,22.71,38.24,38.24,0,0,0,8.68-1c12-2.76,21.49-11.73,26.43-23l.29-.65a70.19,70.19,0,0,1,36-35.63l1.32-.58a37.65,37.65,0,0,0,22.7-34.56h0a37.69,37.69,0,0,0-22.69-34.57l-.3-.12a72.89,72.89,0,0,1-37.7-37.71l-.12-.28a37.68,37.68,0,0,0-34.58-22.71Z"/>
    <path class="cls-2" d="M1628.38,381.84v1h0A36.65,36.65,0,0,1,1662,405l.06.15.06.13a73.53,73.53,0,0,0,38.22,38.22l.3.13a36.67,36.67,0,0,1,0,67.3l-1.33.58a71,71,0,0,0-36.46,36.15l-.29.64c-5,11.47-14.67,19.85-25.74,22.4a37.93,37.93,0,0,1-8.46,1,36.65,36.65,0,0,1-33.66-22.11l-.09-.2,0-.08A73.51,73.51,0,0,0,1556.39,511l-.3-.13a36.67,36.67,0,0,1,0-67.3l1.33-.59a71,71,0,0,0,36.46-36.13l.29-.65c5-11.47,14.67-19.84,25.74-22.4a37.93,37.93,0,0,1,8.46-1v-1m0,0a38.75,38.75,0,0,0-8.68,1c-12,2.76-21.49,11.73-26.44,23l-.28.64a70.21,70.21,0,0,1-36,35.63l-1.33.58a37.65,37.65,0,0,0-22.7,34.56h0a37.69,37.69,0,0,0,22.69,34.57l.3.12a72.9,72.9,0,0,1,37.7,37.7l.12.29a37.67,37.67,0,0,0,34.58,22.71,38.82,38.82,0,0,0,8.68-1c12-2.76,21.49-11.73,26.43-23l.29-.65a70.19,70.19,0,0,1,36-35.63l1.32-.58a37.65,37.65,0,0,0,22.7-34.56h0a37.69,37.69,0,0,0-22.69-34.57l-.3-.13a72.83,72.83,0,0,1-37.7-37.7l-.12-.28a37.68,37.68,0,0,0-34.58-22.71Z"/>
    <path class="cls-2" d="M1628.38,572.88v1h0A36.65,36.65,0,0,1,1662,596l.07.16.05.12a73.53,73.53,0,0,0,38.22,38.22l.3.13a36.67,36.67,0,0,1,0,67.3l-1.33.58a71,71,0,0,0-36.46,36.14l-.29.65c-5,11.47-14.67,19.84-25.74,22.4a37.93,37.93,0,0,1-8.46,1,36.65,36.65,0,0,1-33.66-22.11l-.09-.2,0-.08A73.57,73.57,0,0,0,1556.36,702l-.27-.11a36.68,36.68,0,0,1,0-67.31l1.33-.58a71,71,0,0,0,36.46-36.13l.29-.65c5-11.47,14.67-19.84,25.74-22.4a37.93,37.93,0,0,1,8.46-1v-1m0,0a38.75,38.75,0,0,0-8.68,1c-12,2.76-21.49,11.73-26.44,23l-.28.64a70.24,70.24,0,0,1-36,35.63l-1.33.58a37.65,37.65,0,0,0-22.7,34.56h0a37.67,37.67,0,0,0,22.69,34.56l.3.13a72.9,72.9,0,0,1,37.7,37.7l.12.29a37.67,37.67,0,0,0,34.58,22.71,38.82,38.82,0,0,0,8.68-1c12-2.76,21.49-11.73,26.43-23l.29-.65a70.19,70.19,0,0,1,36-35.63l1.32-.58a37.65,37.65,0,0,0,22.7-34.56h0a37.68,37.68,0,0,0-22.69-34.57l-.3-.13a72.83,72.83,0,0,1-37.7-37.7l-.12-.28a37.68,37.68,0,0,0-34.58-22.71Z"/>
    <path class="cls-2" d="M1628.38,763.92v1h0A36.65,36.65,0,0,1,1662,787l.07.16.05.12a73.56,73.56,0,0,0,38.22,38.22l.3.13a36.67,36.67,0,0,1,0,67.3l-1.33.58a71,71,0,0,0-36.46,36.14l-.29.65c-5,11.47-14.67,19.84-25.74,22.4a37.93,37.93,0,0,1-8.46,1,36.65,36.65,0,0,1-33.66-22.11l-.09-.2,0-.09a73.53,73.53,0,0,0-38.21-38.21l-.3-.13a36.68,36.68,0,0,1,0-67.31l1.33-.58a71,71,0,0,0,36.46-36.13l.29-.65c5-11.47,14.67-19.84,25.74-22.4a37.93,37.93,0,0,1,8.46-1v-1m0,0a38.75,38.75,0,0,0-8.68,1c-12,2.76-21.49,11.73-26.44,23l-.28.64a70.24,70.24,0,0,1-36,35.63l-1.33.58A37.65,37.65,0,0,0,1533,859.3h0a37.68,37.68,0,0,0,22.69,34.56l.3.13a72.9,72.9,0,0,1,37.7,37.7l.12.29a37.67,37.67,0,0,0,34.58,22.71,38.82,38.82,0,0,0,8.68-1c12-2.76,21.49-11.73,26.43-23l.29-.65a70.19,70.19,0,0,1,36-35.63l1.32-.58a37.65,37.65,0,0,0,22.7-34.56h0a37.68,37.68,0,0,0-22.69-34.57l-.3-.13a72.87,72.87,0,0,1-37.7-37.7l-.12-.28a37.68,37.68,0,0,0-34.58-22.71Z"/>
    <path class="cls-2" d="M1628.38,955v1h0A36.65,36.65,0,0,1,1662,978.07l.07.16.05.12a73.56,73.56,0,0,0,38.22,38.22l.3.13a36.67,36.67,0,0,1,0,67.3l-1.33.58a71,71,0,0,0-36.46,36.14l-.29.65c-5,11.47-14.67,19.84-25.74,22.4a37.93,37.93,0,0,1-8.46,1,36.65,36.65,0,0,1-33.66-22.11l-.09-.2,0-.09a73.53,73.53,0,0,0-38.21-38.21l-.3-.13a36.68,36.68,0,0,1,0-67.31l1.33-.58A71,71,0,0,0,1593.89,980l.29-.65c5-11.47,14.67-19.85,25.74-22.4a37.93,37.93,0,0,1,8.46-1v-1m0,0a38.18,38.18,0,0,0-8.68,1c-12,2.76-21.49,11.73-26.44,23l-.28.64a70.24,70.24,0,0,1-36,35.63l-1.33.58a37.65,37.65,0,0,0-22.7,34.56h0a37.68,37.68,0,0,0,22.69,34.56l.3.13a72.9,72.9,0,0,1,37.7,37.7l.12.29a37.67,37.67,0,0,0,34.58,22.71,38.82,38.82,0,0,0,8.68-1c12-2.76,21.49-11.73,26.43-23l.29-.65a70.15,70.15,0,0,1,36-35.63l1.32-.58a37.65,37.65,0,0,0,22.7-34.56v0a37.68,37.68,0,0,0-22.69-34.56l-.3-.13a72.87,72.87,0,0,1-37.7-37.7l-.12-.28A37.68,37.68,0,0,0,1628.38,955Z"/>
    <path class="cls-2" d="M1819.38-.24v1h0A36.65,36.65,0,0,1,1853,22.87l.06.15.06.13a73.53,73.53,0,0,0,38.22,38.22l.3.13a36.68,36.68,0,0,1,0,67.31l-1.33.57a71,71,0,0,0-36.46,36.15l-.29.65c-5,11.46-14.67,19.84-25.74,22.39a37.93,37.93,0,0,1-8.46,1,36.65,36.65,0,0,1-33.66-22.11l-.09-.21,0-.07a73.51,73.51,0,0,0-38.21-38.22l-.3-.13a36.67,36.67,0,0,1,0-67.3l1.33-.58a71,71,0,0,0,36.46-36.14l.29-.65c5-11.47,14.67-19.84,25.74-22.4a37.93,37.93,0,0,1,8.46-1v-1m0,0a38.75,38.75,0,0,0-8.68,1c-12,2.76-21.49,11.73-26.44,23l-.28.64A70.21,70.21,0,0,1,1748,60l-1.33.58A37.65,37.65,0,0,0,1724,95.14h0a37.69,37.69,0,0,0,22.69,34.57l.3.13a72.83,72.83,0,0,1,37.7,37.7l.12.28a37.67,37.67,0,0,0,34.58,22.71,38.24,38.24,0,0,0,8.68-1c12-2.75,21.49-11.73,26.43-23l.29-.65a70.19,70.19,0,0,1,36-35.63l1.32-.58a37.65,37.65,0,0,0,22.7-34.56h0a37.69,37.69,0,0,0-22.69-34.57l-.3-.12a72.89,72.89,0,0,1-37.7-37.71l-.12-.28A37.68,37.68,0,0,0,1819.38-.24Z"/>
    <path class="cls-2" d="M1819.38,190.8v1h0A36.65,36.65,0,0,1,1853,213.91l.07.16.05.12a73.53,73.53,0,0,0,38.22,38.22l.3.13a36.67,36.67,0,0,1,0,67.3l-1.33.58a71,71,0,0,0-36.46,36.15l-.29.64c-5,11.47-14.67,19.85-25.74,22.4a37.93,37.93,0,0,1-8.46,1,36.65,36.65,0,0,1-33.66-22.11l-.1-.24,0,0A73.51,73.51,0,0,0,1747.39,320l-.3-.13a36.67,36.67,0,0,1,0-67.3l1.33-.58a71,71,0,0,0,36.46-36.14l.29-.65c5-11.47,14.67-19.84,25.74-22.4a37.93,37.93,0,0,1,8.46-1v-1m0,0a38.75,38.75,0,0,0-8.68,1c-12,2.76-21.49,11.73-26.44,23l-.28.64A70.21,70.21,0,0,1,1748,251l-1.33.58a37.65,37.65,0,0,0-22.7,34.56h0a37.69,37.69,0,0,0,22.69,34.57l.3.12a72.89,72.89,0,0,1,37.7,37.71l.12.28a37.67,37.67,0,0,0,34.58,22.71,38.24,38.24,0,0,0,8.68-1c12-2.76,21.49-11.73,26.43-23l.29-.65a70.19,70.19,0,0,1,36-35.63l1.32-.58a37.65,37.65,0,0,0,22.7-34.56h0a37.69,37.69,0,0,0-22.69-34.57l-.3-.12a72.89,72.89,0,0,1-37.7-37.71l-.12-.28a37.68,37.68,0,0,0-34.58-22.71Z"/>
    <path class="cls-2" d="M1819.38,381.84v1h0A36.65,36.65,0,0,1,1853,405l.06.15.06.13a73.53,73.53,0,0,0,38.22,38.22l.3.13a36.67,36.67,0,0,1,0,67.3l-1.33.58a71,71,0,0,0-36.46,36.15l-.29.64c-5,11.47-14.67,19.85-25.74,22.4a37.93,37.93,0,0,1-8.46,1,36.65,36.65,0,0,1-33.66-22.11l-.09-.2,0-.08A73.51,73.51,0,0,0,1747.39,511l-.3-.13a36.67,36.67,0,0,1,0-67.3l1.33-.59a71,71,0,0,0,36.46-36.13l.29-.65c5-11.47,14.67-19.84,25.74-22.4a37.93,37.93,0,0,1,8.46-1v-1m0,0a38.75,38.75,0,0,0-8.68,1c-12,2.76-21.49,11.73-26.44,23l-.28.64a70.21,70.21,0,0,1-36,35.63l-1.33.58a37.65,37.65,0,0,0-22.7,34.56h0a37.69,37.69,0,0,0,22.69,34.57l.3.12a72.9,72.9,0,0,1,37.7,37.7l.12.29a37.67,37.67,0,0,0,34.58,22.71,38.82,38.82,0,0,0,8.68-1c12-2.76,21.49-11.73,26.43-23l.29-.65a70.19,70.19,0,0,1,36-35.63l1.32-.58a37.65,37.65,0,0,0,22.7-34.56h0a37.69,37.69,0,0,0-22.69-34.57l-.3-.13a72.83,72.83,0,0,1-37.7-37.7l-.12-.28a37.68,37.68,0,0,0-34.58-22.71Z"/>
    <path class="cls-2" d="M1819.38,572.88v1h0A36.65,36.65,0,0,1,1853,596l.07.16.05.12a73.53,73.53,0,0,0,38.22,38.22l.3.13a36.67,36.67,0,0,1,0,67.3l-1.33.58a71,71,0,0,0-36.46,36.14l-.29.65c-5,11.47-14.67,19.84-25.74,22.4a37.93,37.93,0,0,1-8.46,1,36.65,36.65,0,0,1-33.66-22.11l-.09-.2,0-.08A73.57,73.57,0,0,0,1747.36,702l-.27-.11a36.68,36.68,0,0,1,0-67.31l1.33-.58a71,71,0,0,0,36.46-36.13l.29-.65c5-11.47,14.67-19.84,25.74-22.4a37.93,37.93,0,0,1,8.46-1v-1m0,0a38.75,38.75,0,0,0-8.68,1c-12,2.76-21.49,11.73-26.44,23l-.28.64a70.24,70.24,0,0,1-36,35.63l-1.33.58a37.65,37.65,0,0,0-22.7,34.56h0a37.67,37.67,0,0,0,22.69,34.56l.3.13a72.9,72.9,0,0,1,37.7,37.7l.12.29a37.67,37.67,0,0,0,34.58,22.71,38.82,38.82,0,0,0,8.68-1c12-2.76,21.49-11.73,26.43-23l.29-.65a70.19,70.19,0,0,1,36-35.63l1.32-.58a37.65,37.65,0,0,0,22.7-34.56h0a37.68,37.68,0,0,0-22.69-34.57l-.3-.13a72.83,72.83,0,0,1-37.7-37.7l-.12-.28a37.68,37.68,0,0,0-34.58-22.71Z"/>
    <path class="cls-2" d="M1819.38,763.92v1h0A36.65,36.65,0,0,1,1853,787l.07.16.05.12a73.56,73.56,0,0,0,38.22,38.22l.3.13a36.67,36.67,0,0,1,0,67.3l-1.33.58a71,71,0,0,0-36.46,36.14l-.29.65c-5,11.47-14.67,19.84-25.74,22.4a37.93,37.93,0,0,1-8.46,1,36.65,36.65,0,0,1-33.66-22.11l-.09-.2,0-.09a73.53,73.53,0,0,0-38.21-38.21l-.3-.13a36.68,36.68,0,0,1,0-67.31l1.33-.58a71,71,0,0,0,36.46-36.13l.29-.65c5-11.47,14.67-19.84,25.74-22.4a37.93,37.93,0,0,1,8.46-1v-1m0,0a38.75,38.75,0,0,0-8.68,1c-12,2.76-21.49,11.73-26.44,23l-.28.64a70.24,70.24,0,0,1-36,35.63l-1.33.58A37.65,37.65,0,0,0,1724,859.3h0a37.68,37.68,0,0,0,22.69,34.56l.3.13a72.9,72.9,0,0,1,37.7,37.7l.12.29a37.67,37.67,0,0,0,34.58,22.71,38.82,38.82,0,0,0,8.68-1c12-2.76,21.49-11.73,26.43-23l.29-.65a70.19,70.19,0,0,1,36-35.63l1.32-.58a37.65,37.65,0,0,0,22.7-34.56h0a37.68,37.68,0,0,0-22.69-34.57l-.3-.13a72.87,72.87,0,0,1-37.7-37.7l-.12-.28a37.68,37.68,0,0,0-34.58-22.71Z"/>
    <path class="cls-2" d="M1819.38,955v1h0A36.65,36.65,0,0,1,1853,978.07l.07.16.05.12a73.56,73.56,0,0,0,38.22,38.22l.3.13a36.67,36.67,0,0,1,0,67.3l-1.33.58a71,71,0,0,0-36.46,36.14l-.29.65c-5,11.47-14.67,19.84-25.74,22.4a37.93,37.93,0,0,1-8.46,1,36.65,36.65,0,0,1-33.66-22.11l-.09-.2,0-.09a73.53,73.53,0,0,0-38.21-38.21l-.3-.13a36.68,36.68,0,0,1,0-67.31l1.33-.58A71,71,0,0,0,1784.89,980l.29-.65c5-11.47,14.67-19.85,25.74-22.4a37.93,37.93,0,0,1,8.46-1v-1m0,0a38.18,38.18,0,0,0-8.68,1c-12,2.76-21.49,11.73-26.44,23l-.28.64a70.24,70.24,0,0,1-36,35.63l-1.33.58a37.65,37.65,0,0,0-22.7,34.56h0a37.68,37.68,0,0,0,22.69,34.56l.3.13a72.9,72.9,0,0,1,37.7,37.7l.12.29a37.67,37.67,0,0,0,34.58,22.71,38.82,38.82,0,0,0,8.68-1c12-2.76,21.49-11.73,26.43-23l.29-.65a70.15,70.15,0,0,1,36-35.63l1.32-.58a37.65,37.65,0,0,0,22.7-34.56v0a37.68,37.68,0,0,0-22.69-34.56l-.3-.13a72.87,72.87,0,0,1-37.7-37.7l-.12-.28A37.68,37.68,0,0,0,1819.38,955Z"/>
  </g>
</svg>
